<?xml version="1.0" encoding="utf-8"?>
<svg viewBox="0 0 200 130" width="200px" height="130px" xmlns="http://www.w3.org/2000/svg">
  <g stroke="#3c6c8c" fill="#9bd3e3" style="stroke-linejoin: round; stroke-linecap: round;">
    <ellipse style="stroke-width: 5px;" cx="137" cy="65" rx="60" ry="60"/>
    <ellipse style="stroke-width: 5px;" cx="137" cy="65" rx="50" ry="50"/>
    <path style="stroke-linejoin: round; stroke-width: 5px;" d="M 17.993 82.817 L 78.993 82.75 L 78.993 83.75 L 17.993 83.75 L 17.993 82.817 Z"/>
    <path style="stroke-miterlimit: 3.82; stroke-width: 5px; fill: rgba(255, 255, 255, 0);" d="M 152.209 42.158 C 141.618 36.44 130.131 40.074 123.505 50.371 C 114.516 64.34 123.572 96.553 149.882 87.227"/>
    <path style="stroke-width: 5px;" d="M 114.523 59.061 L 145.545 59.061"/>
    <path style="stroke-width: 5px;" d="M 114.683 70.445 L 144.114 70.445"/>
    <path style="stroke-width: 6px;" d="M 39 101 L 87 101"/>
    <path style="stroke-width: 6px;" d="M 39 29 L 87 29"/>
    <path style="stroke-width: 6px;" d="M 17 47.031 L 78 47.031"/>
    <path style="stroke-width: 6px;" d="M 27.028 65 L 75.028 65"/>
    <path style="stroke-width: 6px;" d="M 6.881 65 L 16.881 65"/>
  </g>
</svg>