<svg id="svg" version="1.1" xmlns="http://www.w3.org/2000/svg" xmlns:xlink="http://www.w3.org/1999/xlink" width="400" height="268.75" viewBox="0, 0, 400,268.75"><g id="svgg"><path id="path0" d="M16.839 0.186 C 16.737 0.289,16.389 0.413,16.067 0.462 C 15.744 0.511,15.415 0.650,15.334 0.772 C 15.254 0.893,14.856 1.074,14.449 1.173 C 14.042 1.273,13.710 1.473,13.710 1.618 C 13.710 1.763,13.528 1.882,13.306 1.882 C 13.085 1.882,12.903 2.063,12.903 2.285 C 12.903 2.537,12.648 2.688,12.223 2.688 C 11.848 2.688,11.473 2.870,11.388 3.091 C 11.302 3.313,11.064 3.495,10.858 3.495 C 10.652 3.495,10.484 3.676,10.484 3.898 C 10.484 4.120,10.302 4.301,10.081 4.301 C 9.859 4.301,9.677 4.483,9.677 4.704 C 9.677 4.926,9.496 5.108,9.274 5.108 C 9.052 5.108,8.871 5.276,8.871 5.482 C 8.871 5.687,8.569 5.932,8.199 6.024 C 7.708 6.148,7.527 6.373,7.527 6.860 C 7.527 7.274,7.374 7.527,7.124 7.527 C 6.902 7.527,6.720 7.708,6.720 7.930 C 6.720 8.152,6.589 8.333,6.429 8.333 C 5.935 8.333,4.301 10.194,4.301 10.758 C 4.301 11.052,4.121 11.290,3.898 11.290 C 3.676 11.290,3.495 11.457,3.495 11.661 C 3.495 11.864,3.313 12.182,3.091 12.366 C 2.870 12.550,2.688 12.876,2.688 13.090 C 2.688 13.304,2.507 13.661,2.285 13.882 C 2.063 14.104,1.882 14.519,1.882 14.804 C 1.882 15.089,1.771 15.323,1.637 15.323 C 1.502 15.323,1.305 15.837,1.200 16.465 C 1.095 17.093,0.896 17.680,0.757 17.768 C 0.042 18.222,-0.003 26.049,0.071 134.677 C 0.145 240.839,0.201 249.456,0.831 249.686 C 0.965 249.736,1.075 250.054,1.075 250.393 C 1.075 250.732,1.257 251.160,1.478 251.344 C 1.700 251.528,1.882 251.958,1.882 252.299 C 1.882 252.640,2.040 253.078,2.233 253.274 C 2.426 253.469,2.819 254.140,3.107 254.765 C 3.394 255.389,3.772 255.903,3.947 255.907 C 4.122 255.911,4.304 256.247,4.350 256.653 C 4.398 257.069,4.583 257.363,4.772 257.325 C 4.956 257.288,5.108 257.500,5.108 257.796 C 5.108 258.091,5.228 258.333,5.376 258.333 C 5.725 258.333,6.720 259.329,6.720 259.677 C 6.720 259.825,6.888 259.946,7.092 259.946 C 7.297 259.946,7.530 260.197,7.610 260.504 C 7.690 260.810,8.007 261.127,8.313 261.207 C 8.620 261.287,8.871 261.520,8.871 261.725 C 8.871 261.929,8.992 262.097,9.140 262.097 C 9.488 262.097,10.484 263.092,10.484 263.441 C 10.484 263.589,10.613 263.710,10.772 263.710 C 10.930 263.710,11.241 263.891,11.463 264.113 C 11.685 264.335,12.100 264.516,12.385 264.516 C 12.670 264.516,12.903 264.698,12.903 264.919 C 12.903 265.141,13.072 265.323,13.278 265.323 C 13.484 265.323,13.722 265.504,13.807 265.726 C 13.892 265.948,14.258 266.129,14.620 266.129 C 14.982 266.129,15.324 266.269,15.382 266.440 C 15.439 266.612,15.760 266.794,16.097 266.845 C 16.433 266.896,16.889 267.119,17.110 267.340 C 17.331 267.561,17.842 267.742,18.245 267.742 C 18.648 267.742,19.107 267.871,19.265 268.029 C 19.892 268.656,27.372 268.683,200.000 268.683 C 372.628 268.683,380.108 268.656,380.735 268.029 C 380.893 267.871,381.352 267.742,381.755 267.742 C 382.158 267.742,382.670 267.560,382.892 267.339 C 383.113 267.117,383.606 266.935,383.986 266.935 C 384.421 266.935,384.677 266.786,384.677 266.532 C 384.677 266.280,384.932 266.129,385.358 266.129 C 385.732 266.129,386.108 265.948,386.193 265.726 C 386.278 265.504,386.516 265.323,386.722 265.323 C 386.928 265.323,387.097 265.141,387.097 264.919 C 387.097 264.698,387.330 264.516,387.615 264.516 C 387.900 264.516,388.315 264.335,388.537 264.113 C 388.759 263.891,389.070 263.710,389.228 263.710 C 389.387 263.710,389.516 263.589,389.516 263.441 C 389.516 263.092,390.512 262.097,390.860 262.097 C 391.008 262.097,391.129 261.929,391.129 261.725 C 391.129 261.520,391.380 261.287,391.687 261.207 C 391.993 261.127,392.310 260.810,392.390 260.504 C 392.470 260.197,392.703 259.946,392.908 259.946 C 393.112 259.946,393.280 259.825,393.280 259.677 C 393.280 259.329,394.275 258.333,394.624 258.333 C 394.772 258.333,394.892 258.091,394.892 257.796 C 394.892 257.500,395.044 257.288,395.228 257.325 C 395.417 257.363,395.602 257.069,395.650 256.653 C 395.696 256.247,395.895 255.914,396.091 255.914 C 396.287 255.914,396.523 255.612,396.616 255.242 C 396.709 254.872,396.903 254.570,397.048 254.570 C 397.193 254.570,397.312 254.380,397.312 254.147 C 397.312 253.915,397.493 253.544,397.715 253.322 C 397.937 253.100,398.122 252.655,398.127 252.333 C 398.132 252.011,398.313 251.512,398.530 251.226 C 398.747 250.939,398.925 250.495,398.925 250.240 C 398.925 249.985,399.035 249.736,399.169 249.686 C 399.799 249.456,399.855 240.839,399.929 134.677 C 400.003 26.049,399.958 18.222,399.243 17.768 C 399.104 17.680,398.905 17.093,398.800 16.465 C 398.695 15.837,398.513 15.323,398.397 15.323 C 398.281 15.323,398.111 14.952,398.021 14.498 C 397.929 14.040,397.735 13.749,397.584 13.842 C 397.434 13.935,397.312 13.827,397.312 13.602 C 397.312 12.947,396.402 11.304,396.035 11.297 C 395.850 11.293,395.699 11.051,395.699 10.758 C 395.699 10.194,394.065 8.333,393.571 8.333 C 393.411 8.333,393.280 8.152,393.280 7.930 C 393.280 7.708,393.098 7.527,392.876 7.527 C 392.655 7.527,392.473 7.292,392.473 7.005 C 392.473 6.718,392.333 6.397,392.163 6.292 C 391.955 6.163,391.923 6.224,392.068 6.477 C 392.186 6.685,392.024 6.588,391.706 6.261 C 391.389 5.935,391.129 5.542,391.129 5.388 C 391.129 5.234,390.948 5.108,390.726 5.108 C 390.504 5.108,390.323 4.926,390.323 4.704 C 390.323 4.483,390.141 4.301,389.919 4.301 C 389.698 4.301,389.516 4.120,389.516 3.898 C 389.516 3.676,389.348 3.495,389.142 3.495 C 388.936 3.495,388.698 3.313,388.612 3.091 C 388.527 2.870,388.206 2.688,387.899 2.688 C 387.591 2.688,387.067 2.394,386.734 2.035 C 386.401 1.675,385.802 1.299,385.403 1.199 C 385.004 1.099,384.677 0.928,384.677 0.820 C 384.677 0.012,381.909 0.000,199.812 0.000 C 99.279 0.000,16.941 0.084,16.839 0.186 M373.790 16.031 C 375.669 16.648,375.613 16.626,376.209 17.001 C 379.645 19.164,381.367 21.410,382.374 25.041 C 383.089 27.620,383.010 239.828,382.293 242.409 C 381.123 246.621,378.145 249.769,374.023 251.150 C 371.872 251.871,28.023 251.851,25.937 251.129 C 21.774 249.690,18.939 246.707,17.711 242.474 C 16.991 239.991,16.907 27.632,17.626 25.041 C 18.673 21.263,21.657 17.638,24.597 16.573 C 27.319 15.586,18.978 15.632,199.866 15.610 C 359.313 15.590,372.549 15.622,373.790 16.031 M257.585 49.122 C 251.582 51.195,250.111 60.326,255.185 64.021 C 257.762 65.899,252.464 65.726,307.371 65.726 L 356.586 65.726 357.889 65.085 C 364.924 61.621,364.000 51.389,356.433 48.964 C 354.816 48.446,259.099 48.598,257.585 49.122 M43.107 79.861 C 40.315 80.678,37.853 83.649,37.390 86.761 C 36.985 89.480,36.989 124.069,37.394 126.679 C 37.969 130.385,40.058 132.691,43.817 133.769 C 45.705 134.311,97.496 134.295,99.579 133.752 C 102.538 132.982,104.473 131.139,105.771 127.857 C 106.391 126.289,106.391 87.152,105.771 85.584 C 104.759 83.025,103.595 81.622,101.537 80.482 L 100.134 79.704 72.043 79.659 C 55.597 79.632,43.602 79.716,43.107 79.861 M88.108 96.998 C 88.374 97.166,88.432 99.297,88.377 106.738 L 88.306 116.263 71.505 116.263 L 54.704 116.263 54.634 106.856 C 54.595 101.682,54.621 97.297,54.692 97.112 C 54.842 96.723,87.499 96.611,88.108 96.998 M43.548 174.779 C 38.956 176.692,37.500 178.719,37.500 183.199 L 37.500 186.156 38.518 187.677 C 40.052 189.969,41.555 190.995,44.220 191.569 C 46.318 192.021,84.248 192.092,86.711 191.649 C 96.150 189.951,96.810 177.624,87.615 174.761 C 86.319 174.358,44.520 174.374,43.548 174.779 M120.346 174.895 C 111.964 177.926,112.687 189.688,121.371 191.568 C 123.425 192.012,161.356 192.093,163.862 191.659 C 172.972 190.078,173.987 177.910,165.263 174.871 C 163.617 174.297,121.937 174.320,120.346 174.895 M197.658 174.872 C 188.981 177.605,189.941 190.088,198.947 191.632 C 201.619 192.090,239.371 192.035,241.532 191.569 C 250.311 189.679,250.935 177.839,242.413 174.871 C 240.801 174.309,199.441 174.311,197.658 174.872 M274.838 174.864 C 266.128 177.613,267.133 190.087,276.192 191.659 C 278.689 192.092,316.626 192.012,318.683 191.569 C 327.646 189.639,328.168 177.510,319.403 174.850 C 317.635 174.313,276.541 174.326,274.838 174.864 M43.716 213.074 C 35.888 215.478,35.006 225.895,42.339 229.341 L 43.683 229.973 116.667 229.973 L 189.651 229.973 190.860 229.389 C 194.180 227.786,195.968 224.948,195.968 221.281 C 195.968 220.091,195.847 219.043,195.699 218.952 C 195.551 218.860,195.430 218.566,195.430 218.298 C 195.430 216.716,192.165 213.852,189.475 213.074 C 187.252 212.431,45.810 212.431,43.716 213.074 " stroke="none" fill="#3c6c8c" fill-rule="evenodd"></path><path id="path1" d="M26.075 16.053 C 25.410 16.285,24.745 16.519,24.597 16.573 C 21.657 17.638,18.673 21.263,17.626 25.041 C 16.907 27.632,16.991 239.991,17.711 242.474 C 18.939 246.707,21.774 249.690,25.937 251.129 C 28.023 251.851,371.872 251.871,374.023 251.150 C 378.145 249.769,381.123 246.621,382.293 242.409 C 383.010 239.828,383.089 27.620,382.374 25.041 C 381.367 21.410,379.645 19.164,376.209 17.001 C 375.613 16.626,375.669 16.648,373.790 16.031 C 371.770 15.366,27.980 15.389,26.075 16.053 M356.433 48.964 C 364.000 51.389,364.924 61.621,357.889 65.085 L 356.586 65.726 307.371 65.726 C 252.464 65.726,257.762 65.899,255.185 64.021 C 250.111 60.326,251.582 51.195,257.585 49.122 C 259.099 48.598,354.816 48.446,356.433 48.964 M101.537 80.482 C 103.595 81.622,104.759 83.025,105.771 85.584 C 106.391 87.152,106.391 126.289,105.771 127.857 C 104.473 131.139,102.538 132.982,99.579 133.752 C 97.496 134.295,45.705 134.311,43.817 133.769 C 40.058 132.691,37.969 130.385,37.394 126.679 C 36.989 124.069,36.985 89.480,37.390 86.761 C 37.853 83.649,40.315 80.678,43.107 79.861 C 43.602 79.716,55.597 79.632,72.043 79.659 L 100.134 79.704 101.537 80.482 M54.692 97.112 C 54.621 97.297,54.595 101.682,54.634 106.856 L 54.704 116.263 71.505 116.263 L 88.306 116.263 88.377 106.738 C 88.432 99.297,88.374 97.166,88.108 96.998 C 87.499 96.611,54.842 96.723,54.692 97.112 M87.615 174.761 C 96.810 177.624,96.150 189.951,86.711 191.649 C 84.248 192.092,46.318 192.021,44.220 191.569 C 41.555 190.995,40.052 189.969,38.518 187.677 L 37.500 186.156 37.500 183.199 C 37.500 178.719,38.956 176.692,43.548 174.779 C 44.520 174.374,86.319 174.358,87.615 174.761 M165.263 174.871 C 169.186 176.237,171.100 178.924,171.101 183.065 C 171.103 187.850,168.584 190.840,163.862 191.659 C 161.356 192.093,123.425 192.012,121.371 191.568 C 112.687 189.688,111.964 177.926,120.346 174.895 C 121.937 174.320,163.617 174.297,165.263 174.871 M242.413 174.871 C 250.935 177.839,250.311 189.679,241.532 191.569 C 239.371 192.035,201.619 192.090,198.947 191.632 C 192.464 190.520,189.454 183.423,193.229 178.150 C 194.286 176.672,196.024 175.387,197.658 174.872 C 199.441 174.311,240.801 174.309,242.413 174.871 M319.403 174.850 C 328.168 177.510,327.646 189.639,318.683 191.569 C 316.626 192.012,278.689 192.092,276.192 191.659 C 267.133 190.087,266.128 177.613,274.838 174.864 C 276.541 174.326,317.635 174.313,319.403 174.850 M189.475 213.074 C 192.165 213.852,195.430 216.716,195.430 218.298 C 195.430 218.566,195.551 218.860,195.699 218.952 C 195.847 219.043,195.968 220.091,195.968 221.281 C 195.968 224.948,194.180 227.786,190.860 229.389 L 189.651 229.973 116.667 229.973 L 43.683 229.973 42.339 229.341 C 35.006 225.895,35.888 215.478,43.716 213.074 C 45.810 212.431,187.252 212.431,189.475 213.074 " stroke="none" fill="#9bd3e3" fill-rule="evenodd"></path></g></svg>