<svg id="svg" version="1.1" xmlns="http://www.w3.org/2000/svg" xmlns:xlink="http://www.w3.org/1999/xlink" width="400" height="269.53125" viewBox="0, 0, 400,269.53125"><g id="svgg"><path id="path0" d="M15.926 1.949 C 10.766 4.521,5.145 10.242,2.514 15.599 L 0.391 19.922 0.391 134.375 L 0.391 248.828 2.514 253.151 C 5.224 258.670,10.862 264.307,16.380 267.018 L 20.703 269.141 200.000 269.141 L 379.297 269.141 383.620 267.018 C 389.138 264.307,394.776 258.670,397.486 253.151 L 399.609 248.828 399.609 134.375 L 399.609 19.922 397.486 15.599 C 394.855 10.242,389.234 4.521,384.074 1.949 L 380.162 0.000 200.000 0.000 L 19.838 -0.000 15.926 1.949 M373.472 17.184 C 374.995 17.607,377.456 19.207,378.941 20.739 L 381.641 23.524 381.641 134.375 L 381.641 245.226 378.941 248.011 C 374.556 252.536,382.857 252.335,200.000 252.335 C 15.111 252.335,25.263 252.601,20.780 247.639 L 17.969 244.527 17.969 134.375 L 17.969 24.223 20.795 21.094 C 22.350 19.374,24.723 17.646,26.069 17.256 C 29.521 16.256,369.875 16.185,373.472 17.184 M255.638 50.438 C 249.951 54.421,250.550 63.521,256.667 66.077 C 260.858 67.828,354.510 67.716,358.220 65.955 C 364.615 62.920,364.571 52.421,358.152 49.981 C 354.409 48.557,257.707 48.989,255.638 50.438 M41.657 80.948 C 37.068 83.211,36.719 85.081,36.719 107.370 C 36.719 137.724,33.545 135.290,72.735 134.988 L 101.692 134.766 103.971 132.214 L 106.250 129.663 106.250 107.583 C 106.250 83.425,106.223 83.269,101.554 80.855 C 98.120 79.079,45.280 79.161,41.657 80.948 M88.281 107.422 L 88.281 117.188 71.484 117.188 L 54.688 117.188 54.688 107.422 L 54.688 97.656 71.484 97.656 L 88.281 97.656 88.281 107.422 M41.221 176.223 C 35.207 179.486,35.636 189.273,41.906 191.893 C 45.837 193.535,86.662 193.442,89.869 191.784 C 96.008 188.609,95.704 178.158,89.402 175.762 C 85.922 174.439,43.765 174.842,41.221 176.223 M117.152 177.148 C 112.603 181.213,113.446 189.054,118.724 191.784 C 122.176 193.568,163.038 193.528,166.814 191.737 C 171.154 189.677,172.773 184.911,170.765 180.105 C 168.718 175.207,167.559 175.000,142.239 175.000 L 119.556 175.000 117.152 177.148 M194.063 177.656 C 189.608 182.111,190.594 188.953,196.102 191.801 C 199.110 193.357,240.692 193.513,243.675 191.981 C 249.942 188.760,250.380 179.197,244.402 176.105 C 242.703 175.227,237.596 175.000,219.492 175.000 L 196.719 175.000 194.063 177.656 M272.520 176.338 C 268.075 179.095,267.335 185.891,271.029 190.027 L 273.307 192.578 295.782 192.808 C 311.751 192.972,318.902 192.772,320.483 192.117 C 326.397 189.667,327.747 182.278,323.125 177.656 L 320.469 175.000 297.539 175.021 C 277.565 175.039,274.340 175.209,272.520 176.338 M41.221 214.504 C 37.167 216.704,35.818 221.333,37.829 226.145 C 40.099 231.577,35.554 231.296,117.626 231.066 L 191.535 230.859 193.814 228.308 C 197.216 224.500,197.066 219.566,193.438 215.938 L 190.781 213.281 117.070 213.313 C 53.395 213.340,43.068 213.502,41.221 214.504 " stroke="none" fill="#3C6888" fill-rule="evenodd"></path></g></svg>