<svg id="svg" version="1.1" xmlns="http://www.w3.org/2000/svg" xmlns:xlink="http://www.w3.org/1999/xlink" width="400" height="400" viewBox="0, 0, 400,400"><g id="svgg"><path id="path0" d="M187.929 1.651 C 179.570 4.525,176.280 7.630,90.576 93.519 C -0.023 184.312,3.292 180.719,0.739 190.861 C -5.298 214.834,16.123 240.428,39.537 237.219 L 42.969 236.749 42.969 300.097 C 42.969 376.434,42.722 374.713,55.502 387.560 C 67.599 399.721,69.659 400.090,123.982 399.824 L 167.844 399.609 169.934 397.656 C 174.362 393.517,174.219 395.258,174.219 345.742 L 174.219 300.000 200.000 300.000 L 225.781 300.000 225.781 345.742 C 225.781 395.258,225.638 393.517,230.066 397.656 L 232.156 399.609 276.018 399.824 C 330.341 400.090,332.401 399.721,344.498 387.560 C 357.278 374.713,357.031 376.434,357.031 300.097 L 357.031 236.749 360.463 237.219 C 380.681 239.990,400.000 221.804,400.000 200.000 C 400.000 184.887,398.047 181.954,368.002 151.958 L 344.531 128.525 344.531 68.521 C 344.531 3.486,344.729 6.533,340.246 2.344 L 338.157 0.391 308.295 0.169 L 278.434 -0.052 275.740 1.747 C 270.509 5.242,270.315 6.310,270.314 31.623 L 270.313 54.263 246.680 30.737 C 233.682 17.798,221.580 6.306,219.788 5.198 C 211.137 -0.150,197.562 -1.662,187.929 1.651 M320.313 63.858 L 320.313 104.279 307.422 91.406 L 294.531 78.533 294.531 50.985 L 294.531 23.438 307.422 23.438 L 320.313 23.438 320.313 63.858 M205.223 25.038 C 208.023 26.081,373.029 190.921,374.612 194.256 C 378.271 201.966,373.566 211.121,365.042 212.881 C 359.041 214.119,361.075 215.975,282.031 137.108 C 203.174 58.426,205.678 60.757,200.000 60.757 C 194.322 60.757,196.826 58.426,117.969 137.108 C 38.925 215.975,40.959 214.119,34.958 212.881 C 26.434 211.121,21.729 201.966,25.388 194.256 C 26.854 191.168,191.865 26.127,194.531 25.083 C 197.158 24.054,202.521 24.032,205.223 25.038 M266.600 156.834 L 332.813 223.043 332.813 292.228 L 332.812 361.412 330.779 365.493 C 325.665 375.755,324.073 376.126,283.813 376.412 L 250.048 376.653 249.828 330.180 C 249.584 278.391,249.978 282.074,244.230 277.783 C 240.848 275.258,159.152 275.258,155.770 277.783 C 150.022 282.074,150.416 278.391,150.172 330.180 L 149.952 376.653 116.187 376.412 C 75.927 376.126,74.335 375.755,69.221 365.493 L 67.188 361.412 67.188 292.231 L 67.188 223.050 133.397 156.838 C 169.812 120.421,199.782 90.625,199.997 90.625 C 200.211 90.625,230.183 120.419,266.600 156.834 " stroke="none" fill="#3C6888" fill-rule="evenodd"></path></g></svg>