<svg id="svg" version="1.1" xmlns="http://www.w3.org/2000/svg" xmlns:xlink="http://www.w3.org/1999/xlink" width="400" height="282.14285714285717" viewBox="0, 0, 400,282.14285714285717"><g id="svgg"><path id="path0" d="M244.178 0.282 C 244.178 0.457,242.716 0.565,240.358 0.565 C 237.223 0.565,236.509 0.640,236.376 0.988 C 236.250 1.315,235.705 1.411,233.985 1.411 C 232.193 1.411,231.757 1.494,231.757 1.835 C 231.757 2.176,231.318 2.258,229.499 2.258 C 227.680 2.258,227.241 2.341,227.241 2.682 C 227.241 3.014,226.851 3.105,225.426 3.105 C 224.278 3.105,223.471 3.245,223.230 3.487 C 223.020 3.697,222.172 3.933,221.345 4.013 C 220.518 4.092,219.759 4.287,219.659 4.445 C 219.514 4.676,218.111 4.973,216.725 5.067 C 216.609 5.075,216.514 5.272,216.514 5.505 C 216.514 5.818,216.184 5.928,215.243 5.928 C 214.303 5.928,213.973 6.038,213.973 6.351 C 213.973 6.671,213.628 6.775,212.562 6.775 C 211.495 6.775,211.150 6.878,211.150 7.198 C 211.150 7.503,210.838 7.622,210.035 7.622 C 209.366 7.622,208.830 7.782,208.694 8.023 C 208.570 8.243,208.024 8.465,207.481 8.517 C 206.937 8.568,206.516 8.742,206.544 8.904 C 206.587 9.156,205.906 9.314,204.446 9.391 C 204.252 9.401,204.093 9.579,204.093 9.786 C 204.093 10.016,203.764 10.162,203.246 10.162 C 202.776 10.162,202.149 10.413,201.835 10.727 C 201.521 11.041,200.894 11.291,200.423 11.291 C 199.859 11.291,199.577 11.433,199.577 11.715 C 199.577 11.997,199.294 12.138,198.730 12.138 C 198.165 12.138,197.883 12.279,197.883 12.562 C 197.883 12.857,197.585 12.985,196.895 12.985 C 196.205 12.985,195.907 13.113,195.907 13.409 C 195.907 13.691,195.625 13.832,195.060 13.832 C 194.495 13.832,194.213 13.973,194.213 14.255 C 194.213 14.538,193.931 14.679,193.366 14.679 C 192.802 14.679,192.519 14.820,192.519 15.102 C 192.519 15.352,192.259 15.528,191.884 15.530 C 191.126 15.535,190.458 15.914,190.590 16.263 C 190.642 16.401,190.272 16.554,189.767 16.602 C 189.199 16.657,188.850 16.845,188.850 17.096 C 188.850 17.342,188.568 17.502,188.135 17.502 C 187.742 17.502,187.347 17.692,187.258 17.925 C 187.169 18.158,186.919 18.349,186.702 18.349 C 186.486 18.349,186.309 18.539,186.309 18.772 C 186.309 19.068,186.011 19.195,185.321 19.195 C 184.631 19.195,184.333 19.323,184.333 19.619 C 184.333 19.855,184.082 20.042,183.766 20.042 C 183.454 20.042,182.986 20.290,182.727 20.592 C 182.468 20.895,182.152 21.078,182.024 20.999 C 181.897 20.920,181.793 21.117,181.793 21.437 C 181.793 21.896,181.613 22.018,180.937 22.018 C 180.437 22.018,180.014 22.194,179.919 22.442 C 179.829 22.675,179.579 22.865,179.363 22.865 C 179.147 22.865,178.970 23.056,178.970 23.289 C 178.970 23.571,178.687 23.712,178.123 23.712 C 177.558 23.712,177.276 23.853,177.276 24.135 C 177.276 24.368,177.085 24.559,176.853 24.559 C 176.620 24.559,176.429 24.749,176.429 24.982 C 176.429 25.215,176.290 25.406,176.121 25.406 C 175.951 25.406,175.492 25.658,175.100 25.967 C 174.707 26.275,174.284 26.464,174.158 26.386 C 174.032 26.308,173.848 26.500,173.749 26.813 C 173.649 27.126,173.386 27.382,173.164 27.382 C 172.941 27.382,172.759 27.572,172.759 27.805 C 172.759 28.070,172.492 28.229,172.045 28.229 C 171.652 28.229,171.257 28.419,171.168 28.652 C 171.078 28.885,170.828 29.076,170.612 29.076 C 170.396 29.076,170.219 29.266,170.219 29.499 C 170.219 29.732,170.024 29.922,169.786 29.922 C 169.549 29.922,169.281 30.113,169.192 30.346 C 169.102 30.579,168.922 30.769,168.792 30.769 C 168.661 30.769,168.214 31.084,167.798 31.470 C 167.383 31.855,166.932 32.101,166.796 32.018 C 166.660 31.934,166.549 32.000,166.549 32.164 C 166.549 33.686,169.823 33.588,118.704 33.594 C 81.716 33.598,72.000 33.671,72.055 33.948 C 72.094 34.143,71.778 34.338,71.342 34.388 C 70.367 34.500,69.160 35.584,69.160 36.347 C 69.160 36.661,68.970 36.992,68.737 37.082 C 68.413 37.206,68.313 37.737,68.313 39.340 C 68.313 40.942,68.413 41.474,68.737 41.598 C 68.970 41.688,69.160 42.082,69.160 42.475 C 69.160 42.922,69.319 43.190,69.584 43.190 C 69.817 43.190,70.007 43.372,70.007 43.594 C 70.007 43.817,70.249 44.076,70.546 44.170 C 70.842 44.264,71.155 44.526,71.242 44.753 C 71.380 45.113,76.678 45.166,112.294 45.166 C 148.456 45.166,153.187 45.215,153.187 45.589 C 153.187 45.822,152.955 46.013,152.670 46.013 C 152.385 46.013,152.152 46.203,152.152 46.436 C 152.152 46.669,151.962 46.860,151.729 46.860 C 151.496 46.860,151.306 47.050,151.306 47.283 C 151.306 47.516,151.175 47.706,151.014 47.706 C 150.854 47.706,150.642 47.919,150.542 48.179 C 150.311 48.782,149.415 49.682,149.047 49.682 C 148.892 49.682,148.761 49.905,148.756 50.176 C 148.746 50.738,147.533 52.223,147.085 52.223 C 146.922 52.223,146.789 52.355,146.789 52.517 C 146.789 52.836,146.369 53.405,145.589 54.140 C 145.318 54.397,145.095 54.896,145.095 55.250 C 145.095 55.633,144.924 55.893,144.672 55.893 C 144.439 55.893,144.248 56.083,144.248 56.316 C 144.248 56.549,144.058 56.740,143.825 56.740 C 143.592 56.740,143.402 56.917,143.402 57.133 C 143.402 57.349,143.211 57.599,142.978 57.689 C 142.745 57.778,142.555 58.103,142.555 58.412 C 142.555 58.983,141.337 60.409,140.848 60.409 C 140.700 60.409,140.579 60.790,140.579 61.256 C 140.579 61.789,140.434 62.103,140.188 62.103 C 139.973 62.103,139.728 62.370,139.643 62.696 C 139.557 63.023,139.352 63.205,139.186 63.103 C 138.994 62.984,138.885 63.286,138.885 63.938 C 138.885 64.590,138.776 64.892,138.584 64.773 C 138.418 64.670,138.213 64.853,138.127 65.180 C 138.042 65.506,137.797 65.773,137.582 65.773 C 137.340 65.773,137.191 66.082,137.191 66.587 C 137.191 67.163,137.027 67.444,136.627 67.548 C 136.245 67.648,136.062 67.933,136.062 68.428 C 136.062 68.891,135.906 69.160,135.639 69.160 C 135.406 69.160,135.215 69.401,135.215 69.695 C 135.215 69.988,135.025 70.302,134.792 70.391 C 134.559 70.481,134.368 70.875,134.368 71.268 C 134.368 71.715,134.210 71.983,133.945 71.983 C 133.666 71.983,133.522 72.262,133.522 72.800 C 133.522 73.265,133.339 73.686,133.098 73.779 C 132.851 73.874,132.675 74.297,132.675 74.797 C 132.675 75.331,132.542 75.626,132.322 75.582 C 132.113 75.540,131.934 75.873,131.883 76.400 C 131.825 76.998,131.617 77.336,131.247 77.432 C 130.882 77.528,130.699 77.820,130.699 78.308 C 130.699 78.771,130.543 79.040,130.275 79.040 C 129.996 79.040,129.852 79.319,129.852 79.857 C 129.852 80.322,129.670 80.743,129.428 80.836 C 129.181 80.931,129.005 81.354,129.005 81.854 C 129.005 82.427,128.865 82.710,128.582 82.710 C 128.299 82.710,128.158 82.992,128.158 83.557 L 128.158 84.404 81.007 84.404 C 39.356 84.404,33.838 84.453,33.694 84.827 C 33.600 85.073,33.178 85.251,32.689 85.251 C 32.085 85.251,31.804 85.410,31.699 85.812 C 31.618 86.121,31.431 86.298,31.283 86.207 C 31.135 86.115,30.944 86.307,30.858 86.634 C 30.773 86.960,30.584 87.227,30.437 87.227 C 30.291 87.227,30.250 87.354,30.346 87.509 C 30.442 87.664,30.386 87.791,30.221 87.791 C 29.710 87.791,29.830 93.059,30.346 93.257 C 30.579 93.346,30.769 93.614,30.769 93.851 C 30.769 94.089,30.960 94.284,31.193 94.284 C 31.426 94.284,31.616 94.465,31.616 94.687 C 31.616 94.910,31.902 95.135,32.251 95.188 C 32.601 95.241,32.853 95.447,32.811 95.645 C 32.770 95.842,32.897 95.983,33.094 95.957 C 35.515 95.640,123.641 96.042,123.641 96.371 C 123.641 96.587,123.451 96.837,123.218 96.926 C 122.928 97.038,122.795 97.491,122.795 98.368 C 122.795 99.317,122.685 99.647,122.371 99.647 C 122.051 99.647,121.948 99.992,121.948 101.059 C 121.948 102.125,121.844 102.470,121.524 102.470 C 121.195 102.470,121.101 102.846,121.101 104.164 C 121.101 105.481,121.007 105.857,120.677 105.857 C 120.445 105.857,120.238 106.048,120.219 106.281 C 120.199 106.514,120.152 106.831,120.113 106.987 C 120.074 107.142,120.026 107.848,120.007 108.556 C 119.988 109.264,119.860 109.774,119.724 109.690 C 119.409 109.495,119.125 110.895,119.125 112.637 C 119.125 113.573,118.996 114.033,118.701 114.146 C 118.369 114.273,118.278 114.849,118.278 116.828 C 118.278 118.806,118.187 119.382,117.855 119.509 C 117.511 119.641,117.431 120.310,117.431 123.068 C 117.431 125.899,117.361 126.464,117.008 126.464 C 116.650 126.464,116.584 127.139,116.584 130.840 L 116.584 135.215 79.958 135.235 C 44.969 135.254,42.182 135.306,42.393 135.932 C 42.443 136.081,42.069 136.243,41.561 136.292 C 41.054 136.341,40.708 136.493,40.793 136.631 C 40.878 136.768,40.690 137.019,40.375 137.187 C 39.967 137.405,39.802 137.778,39.802 138.480 C 39.802 139.097,39.644 139.528,39.379 139.630 C 38.811 139.848,38.798 142.230,39.363 142.665 C 39.587 142.837,39.822 143.423,39.887 143.966 C 39.951 144.513,40.147 144.923,40.326 144.884 C 40.504 144.845,40.649 145.059,40.649 145.360 C 40.649 145.770,40.878 145.928,41.567 145.995 C 42.071 146.043,42.443 146.205,42.393 146.355 C 42.182 146.981,44.969 147.032,79.958 147.051 L 116.584 147.071 116.584 151.447 C 116.584 155.148,116.650 155.822,117.008 155.822 C 117.362 155.822,117.431 156.402,117.431 159.351 C 117.431 162.299,117.501 162.879,117.855 162.879 C 118.199 162.879,118.278 163.346,118.278 165.390 C 118.278 167.270,118.376 167.938,118.670 168.050 C 118.942 168.155,119.095 168.863,119.172 170.389 C 119.242 171.775,119.408 172.619,119.627 172.691 C 119.824 172.757,119.973 173.310,119.976 173.983 C 119.981 175.568,120.239 176.429,120.710 176.429 C 121.000 176.429,121.101 176.869,121.101 178.123 C 121.101 179.440,121.195 179.817,121.524 179.817 C 121.844 179.817,121.948 180.162,121.948 181.228 C 121.948 182.294,122.051 182.639,122.371 182.639 C 122.685 182.639,122.795 182.970,122.795 183.919 C 122.795 184.795,122.928 185.249,123.218 185.360 C 123.451 185.450,123.641 185.700,123.641 185.916 C 123.641 186.250,116.852 186.309,78.193 186.309 C 42.454 186.309,32.760 186.383,32.816 186.655 C 32.855 186.846,32.601 187.045,32.251 187.098 C 31.902 187.152,31.616 187.377,31.616 187.599 C 31.616 187.821,31.426 188.003,31.193 188.003 C 30.960 188.003,30.769 188.197,30.769 188.435 C 30.769 188.673,30.579 188.941,30.346 189.030 C 29.830 189.228,29.710 194.495,30.221 194.495 C 30.386 194.495,30.442 194.622,30.346 194.778 C 30.250 194.933,30.291 195.060,30.437 195.060 C 30.584 195.060,30.773 195.327,30.858 195.653 C 30.944 195.979,31.149 196.162,31.315 196.060 C 31.481 195.957,31.616 196.058,31.616 196.283 C 31.616 196.724,32.198 197.036,33.020 197.036 C 33.302 197.036,33.605 197.227,33.694 197.459 C 33.838 197.833,39.356 197.883,81.007 197.883 L 128.158 197.883 128.158 198.730 C 128.158 199.294,128.299 199.577,128.582 199.577 C 128.839 199.577,129.005 199.839,129.005 200.248 C 129.005 200.617,129.195 201.077,129.428 201.270 C 129.661 201.464,129.852 201.987,129.852 202.434 C 129.852 202.968,129.997 203.246,130.275 203.246 C 130.650 203.246,130.846 203.780,130.724 204.470 C 130.701 204.600,130.940 204.774,131.255 204.856 C 131.665 204.963,131.828 205.239,131.828 205.829 C 131.828 206.300,132.009 206.721,132.251 206.814 C 132.484 206.903,132.675 207.284,132.675 207.661 C 132.675 208.037,132.865 208.418,133.098 208.508 C 133.339 208.600,133.522 209.021,133.522 209.487 C 133.522 210.025,133.666 210.303,133.945 210.303 C 134.178 210.303,134.368 210.544,134.368 210.838 C 134.368 211.132,134.559 211.445,134.792 211.535 C 135.025 211.624,135.215 212.019,135.215 212.412 C 135.215 212.859,135.374 213.126,135.639 213.126 C 135.906 213.126,136.062 213.396,136.062 213.858 C 136.062 214.353,136.245 214.638,136.627 214.738 C 137.120 214.867,137.359 215.508,137.218 216.323 C 137.195 216.451,137.308 216.475,137.467 216.377 C 137.626 216.278,137.883 216.530,138.038 216.937 C 138.193 217.344,138.447 217.598,138.602 217.502 C 138.758 217.406,138.885 217.578,138.885 217.885 C 138.885 218.699,139.188 219.357,139.479 219.177 C 139.618 219.091,139.732 219.283,139.732 219.602 C 139.732 219.931,139.916 220.183,140.155 220.183 C 140.526 220.183,140.722 220.705,140.609 221.391 C 140.590 221.512,140.765 221.684,140.999 221.774 C 141.234 221.864,141.426 222.106,141.426 222.312 C 141.426 222.518,141.680 222.767,141.990 222.865 C 142.351 222.980,142.555 223.292,142.555 223.731 C 142.555 224.124,142.703 224.388,142.901 224.347 C 143.091 224.308,143.291 224.562,143.344 224.912 C 143.397 225.261,143.623 225.547,143.845 225.547 C 144.067 225.547,144.248 225.737,144.248 225.970 C 144.248 226.203,144.431 226.394,144.653 226.394 C 144.885 226.394,145.096 226.726,145.147 227.170 C 145.197 227.607,145.391 227.915,145.589 227.876 C 145.783 227.837,145.942 228.011,145.942 228.262 C 145.942 228.776,147.963 230.910,148.449 230.910 C 148.623 230.910,148.765 231.232,148.765 231.625 C 148.765 232.018,148.956 232.413,149.188 232.502 C 149.421 232.591,149.612 232.841,149.612 233.058 C 149.612 233.274,149.802 233.451,150.035 233.451 C 150.268 233.451,150.459 233.645,150.459 233.883 C 150.459 234.121,150.649 234.389,150.882 234.478 C 151.115 234.567,151.306 234.817,151.306 235.034 C 151.306 235.250,151.496 235.427,151.729 235.427 C 151.962 235.427,152.152 235.618,152.152 235.850 C 152.152 236.083,152.385 236.274,152.670 236.274 C 152.955 236.274,153.187 236.464,153.187 236.697 C 153.187 237.072,148.456 237.121,112.294 237.121 C 76.678 237.121,71.380 237.174,71.242 237.533 C 71.155 237.760,70.842 238.023,70.546 238.117 C 70.249 238.211,70.007 238.470,70.007 238.692 C 70.007 238.915,69.817 239.097,69.584 239.097 C 69.319 239.097,69.160 239.364,69.160 239.811 C 69.160 240.204,68.970 240.599,68.737 240.688 C 68.139 240.918,68.138 244.527,68.735 245.124 C 68.967 245.356,69.193 245.781,69.237 246.069 C 69.359 246.866,70.485 247.848,71.277 247.848 C 71.716 247.848,71.983 248.008,71.983 248.271 C 71.983 248.646,77.378 248.694,118.843 248.694 C 160.307 248.694,165.702 248.743,165.702 249.118 C 165.702 249.351,165.847 249.541,166.024 249.541 C 166.201 249.541,166.528 249.764,166.751 250.035 C 166.973 250.307,167.062 250.349,166.947 250.128 C 166.812 249.869,167.002 249.919,167.482 250.269 C 167.891 250.568,168.229 250.970,168.234 251.164 C 168.239 251.359,168.433 251.517,168.666 251.517 C 168.899 251.517,169.090 251.648,169.090 251.808 C 169.090 251.969,169.292 252.177,169.540 252.272 C 169.788 252.367,170.388 252.808,170.873 253.252 C 171.359 253.695,171.982 254.058,172.258 254.058 C 172.534 254.058,172.759 254.248,172.759 254.481 C 172.759 254.714,172.950 254.905,173.183 254.905 C 173.416 254.905,173.606 255.098,173.606 255.335 C 173.606 255.590,173.961 255.837,174.477 255.940 C 174.956 256.036,175.415 256.287,175.496 256.497 C 175.576 256.708,175.820 256.881,176.036 256.881 C 176.252 256.881,176.429 257.071,176.429 257.304 C 176.429 257.537,176.606 257.728,176.822 257.728 C 177.039 257.728,177.289 257.918,177.378 258.151 C 177.467 258.384,177.862 258.574,178.255 258.574 C 178.702 258.574,178.970 258.733,178.970 258.998 C 178.970 259.233,179.221 259.421,179.534 259.421 C 179.848 259.421,180.099 259.610,180.099 259.845 C 180.099 260.127,180.381 260.268,180.946 260.268 C 181.604 260.268,181.793 260.394,181.793 260.833 C 181.793 261.209,181.981 261.397,182.357 261.397 C 182.668 261.397,182.922 261.512,182.922 261.652 C 182.922 261.792,183.303 262.040,183.769 262.202 C 184.234 262.364,184.615 262.631,184.615 262.794 C 184.615 262.957,184.996 263.091,185.462 263.091 C 186.027 263.091,186.309 263.232,186.309 263.514 C 186.309 263.747,186.548 263.938,186.839 263.938 C 187.131 263.938,187.527 264.128,187.721 264.361 C 187.914 264.594,188.247 264.785,188.461 264.785 C 188.675 264.785,188.850 264.975,188.850 265.208 C 188.850 265.441,188.945 265.617,189.061 265.598 C 189.686 265.500,190.894 265.658,190.734 265.817 C 190.413 266.139,191.148 266.761,191.848 266.761 C 192.257 266.761,192.519 266.927,192.519 267.184 C 192.519 267.466,192.802 267.608,193.366 267.608 C 193.931 267.608,194.213 267.749,194.213 268.031 C 194.213 268.310,194.492 268.454,195.030 268.454 C 195.495 268.454,195.916 268.637,196.009 268.878 C 196.104 269.125,196.527 269.301,197.027 269.301 C 197.600 269.301,197.883 269.442,197.883 269.725 C 197.883 270.004,198.162 270.148,198.700 270.148 C 199.150 270.148,199.586 270.331,199.672 270.555 C 199.766 270.800,200.311 270.996,201.043 271.049 C 201.896 271.110,202.258 271.262,202.258 271.560 C 202.258 271.821,202.583 272.019,203.105 272.078 C 203.571 272.130,204.054 272.353,204.178 272.572 C 204.313 272.810,204.853 272.971,205.519 272.971 C 206.322 272.971,206.634 273.090,206.634 273.394 C 206.634 273.690,206.932 273.818,207.622 273.818 C 208.295 273.818,208.610 273.948,208.610 274.226 C 208.610 274.512,209.009 274.659,209.951 274.720 C 210.838 274.777,211.268 274.925,211.221 275.159 C 211.172 275.403,211.583 275.512,212.562 275.512 C 213.628 275.512,213.973 275.615,213.973 275.935 C 213.973 276.256,214.320 276.359,215.401 276.359 C 216.187 276.359,216.762 276.467,216.680 276.600 C 216.449 276.974,217.830 277.488,219.068 277.488 C 219.871 277.488,220.183 277.606,220.183 277.911 C 220.183 278.240,220.557 278.335,221.847 278.335 C 223.065 278.335,223.554 278.448,223.673 278.758 C 223.793 279.070,224.285 279.181,225.538 279.181 C 226.863 279.181,227.241 279.275,227.241 279.605 C 227.241 279.946,227.680 280.028,229.499 280.028 C 231.318 280.028,231.757 280.111,231.757 280.452 C 231.757 280.798,232.243 280.875,234.439 280.875 C 236.635 280.875,237.121 280.952,237.121 281.299 C 237.121 281.655,237.748 281.722,241.073 281.722 C 243.519 281.722,245.025 281.829,245.025 282.004 C 245.025 282.377,270.910 282.394,271.042 282.022 C 271.094 281.876,272.851 281.717,274.947 281.669 C 277.809 281.603,278.740 281.493,278.687 281.228 C 278.635 280.966,279.301 280.875,281.284 280.875 C 283.323 280.875,284.006 280.778,284.181 280.465 C 284.343 280.177,285.039 280.031,286.524 279.971 C 288.030 279.911,288.618 279.786,288.567 279.534 C 288.517 279.281,289.016 279.181,290.341 279.181 C 291.719 279.181,292.225 279.075,292.347 278.758 C 292.463 278.455,292.937 278.335,294.018 278.335 C 295.006 278.335,295.604 278.200,295.752 277.943 C 295.876 277.728,296.588 277.492,297.334 277.420 C 298.080 277.347,298.842 277.123,299.028 276.923 C 299.294 276.635,299.281 276.606,298.968 276.784 C 298.703 276.936,298.638 276.903,298.773 276.684 C 298.886 276.503,299.654 276.359,300.511 276.359 C 301.688 276.359,302.047 276.260,302.047 275.935 C 302.047 275.621,302.377 275.512,303.326 275.512 C 304.202 275.512,304.656 275.378,304.767 275.088 C 304.867 274.829,305.294 274.665,305.867 274.665 C 306.383 274.665,306.996 274.474,307.229 274.241 C 307.461 274.008,308.042 273.818,308.519 273.818 C 309.064 273.818,309.386 273.675,309.386 273.432 C 309.386 273.192,309.831 272.986,310.556 272.888 C 311.199 272.802,311.820 272.579,311.935 272.393 C 312.050 272.206,312.493 272.054,312.918 272.054 C 313.437 272.054,313.737 271.879,313.830 271.524 C 313.925 271.161,314.224 270.995,314.782 270.995 C 315.318 270.995,315.596 270.850,315.596 270.572 C 315.596 270.278,315.892 270.148,316.564 270.148 C 317.096 270.148,317.723 269.958,317.955 269.725 C 318.188 269.492,318.710 269.301,319.114 269.301 C 319.518 269.301,319.921 269.111,320.011 268.878 C 320.100 268.645,320.481 268.454,320.858 268.454 C 321.234 268.454,321.615 268.264,321.705 268.031 C 321.794 267.798,322.098 267.608,322.381 267.608 C 322.664 267.608,323.086 267.417,323.319 267.184 C 323.552 266.951,323.942 266.761,324.186 266.761 C 324.430 266.761,324.884 266.507,325.194 266.196 C 325.505 265.886,325.870 265.632,326.006 265.632 C 326.143 265.632,326.412 265.441,326.606 265.208 C 326.799 264.975,327.195 264.785,327.487 264.785 C 327.778 264.785,328.017 264.594,328.017 264.361 C 328.017 264.078,328.300 263.938,328.873 263.938 C 329.373 263.938,329.796 263.762,329.891 263.514 C 329.980 263.282,330.332 263.091,330.672 263.091 C 331.012 263.091,331.601 262.716,331.982 262.256 C 332.378 261.779,332.958 261.416,333.336 261.409 C 333.754 261.402,334.052 261.189,334.145 260.833 C 334.227 260.520,334.530 260.268,334.825 260.268 C 335.117 260.268,335.356 260.078,335.356 259.845 C 335.356 259.580,335.624 259.421,336.071 259.421 C 336.464 259.421,336.859 259.231,336.948 258.998 C 337.037 258.765,337.287 258.574,337.504 258.574 C 337.720 258.574,337.897 258.384,337.897 258.151 C 337.897 257.869,338.179 257.728,338.744 257.728 C 339.308 257.728,339.591 257.586,339.591 257.304 C 339.591 257.071,339.785 256.881,340.023 256.881 C 340.261 256.881,340.528 256.690,340.618 256.457 C 340.707 256.224,340.933 256.034,341.120 256.034 C 341.307 256.034,341.733 255.780,342.066 255.469 C 342.400 255.159,342.805 254.905,342.966 254.905 C 343.128 254.905,343.260 254.714,343.260 254.481 C 343.260 254.248,343.451 254.058,343.684 254.058 C 343.917 254.058,344.107 253.867,344.107 253.634 C 344.107 253.402,344.342 253.211,344.629 253.211 C 345.089 253.211,345.457 252.978,346.848 251.805 C 347.035 251.647,347.321 251.517,347.483 251.517 C 347.645 251.517,347.777 251.327,347.777 251.094 C 347.777 250.861,347.968 250.670,348.200 250.670 C 348.436 250.670,348.624 250.420,348.624 250.106 C 348.624 249.792,348.812 249.541,349.047 249.541 C 349.280 249.541,349.471 249.351,349.471 249.118 C 349.471 248.885,349.661 248.679,349.894 248.659 C 350.680 248.594,350.780 248.554,351.245 248.130 C 352.216 247.244,352.561 247.001,352.846 247.001 C 353.008 247.001,353.140 246.810,353.140 246.577 C 353.140 246.344,353.331 246.154,353.564 246.154 C 353.797 246.154,353.987 245.963,353.987 245.730 C 353.987 245.498,354.178 245.307,354.411 245.307 C 354.646 245.307,354.834 245.056,354.834 244.742 C 354.834 244.429,355.022 244.178,355.258 244.178 C 355.490 244.178,355.681 243.987,355.681 243.754 C 355.681 243.519,355.932 243.331,356.246 243.331 C 356.556 243.331,356.810 243.204,356.810 243.049 C 356.810 242.683,357.855 241.637,358.222 241.637 C 358.377 241.637,358.504 241.447,358.504 241.214 C 358.504 240.981,358.694 240.790,358.927 240.790 C 359.160 240.790,359.351 240.600,359.351 240.367 C 359.351 240.134,359.541 239.944,359.774 239.944 C 360.009 239.944,360.198 239.693,360.198 239.379 C 360.198 239.065,360.386 238.814,360.621 238.814 C 360.854 238.814,361.044 238.624,361.044 238.391 C 361.044 238.158,361.239 237.968,361.477 237.968 C 361.715 237.968,361.982 237.777,362.072 237.544 C 362.161 237.311,362.411 237.121,362.627 237.121 C 362.844 237.121,363.020 236.930,363.020 236.697 C 363.020 236.464,363.211 236.274,363.444 236.274 C 363.679 236.274,363.867 236.023,363.867 235.709 C 363.867 235.399,364.015 235.176,364.195 235.215 C 364.376 235.254,364.598 234.993,364.689 234.634 C 364.781 234.276,364.982 233.990,365.138 233.999 C 365.412 234.015,365.452 233.916,365.526 233.028 C 365.545 232.795,365.752 232.604,365.984 232.604 C 366.217 232.604,366.408 232.414,366.408 232.181 C 366.408 231.948,366.602 231.757,366.840 231.757 C 367.078 231.757,367.346 231.567,367.435 231.334 C 367.524 231.101,367.774 230.910,367.991 230.910 C 368.207 230.910,368.384 230.656,368.384 230.346 C 368.384 230.035,368.537 229.813,368.724 229.852 C 368.911 229.891,369.086 229.764,369.112 229.570 C 369.139 229.375,369.191 229.121,369.229 229.005 C 369.267 228.888,369.283 228.698,369.264 228.582 C 369.246 228.465,369.387 228.402,369.577 228.440 C 369.767 228.479,369.967 228.225,370.020 227.876 C 370.073 227.526,370.299 227.241,370.521 227.241 C 370.743 227.241,370.924 227.050,370.924 226.817 C 370.924 226.584,371.101 226.394,371.317 226.394 C 371.533 226.394,371.791 226.071,371.890 225.677 C 371.999 225.243,372.196 225.037,372.388 225.156 C 372.581 225.275,372.627 225.225,372.505 225.027 C 372.392 224.845,372.622 224.408,373.026 224.034 C 373.423 223.666,373.747 223.221,373.747 223.045 C 373.747 222.868,373.938 222.724,374.171 222.724 C 374.404 222.724,374.579 222.629,374.561 222.512 C 374.438 221.734,374.655 221.030,375.018 221.030 C 375.251 221.030,375.441 220.840,375.441 220.607 C 375.441 220.374,375.632 220.183,375.865 220.183 C 376.147 220.183,376.288 219.901,376.288 219.337 C 376.288 218.772,376.429 218.490,376.711 218.490 C 376.947 218.490,377.135 218.239,377.135 217.925 C 377.135 217.612,377.323 217.361,377.558 217.361 C 377.826 217.361,377.982 217.091,377.982 216.628 C 377.982 216.169,378.165 215.848,378.476 215.767 C 378.747 215.696,379.117 215.327,379.296 214.946 C 379.543 214.423,379.543 214.294,379.296 214.417 C 379.117 214.507,379.192 214.397,379.464 214.175 C 379.735 213.952,379.958 213.639,379.958 213.478 C 379.958 213.318,380.148 213.114,380.381 213.024 C 380.629 212.929,380.805 212.506,380.805 212.006 C 380.805 211.434,380.945 211.150,381.228 211.150 C 381.510 211.150,381.651 210.868,381.651 210.303 C 381.651 209.739,381.793 209.457,382.075 209.457 C 382.308 209.457,382.498 209.257,382.498 209.013 C 382.498 208.769,382.689 208.379,382.922 208.146 C 383.155 207.913,383.345 207.418,383.345 207.046 C 383.345 206.535,383.458 206.413,383.807 206.546 C 384.126 206.669,384.226 206.601,384.130 206.326 C 384.053 206.107,384.222 205.596,384.506 205.190 C 384.790 204.785,384.941 204.372,384.842 204.273 C 384.743 204.174,384.811 204.093,384.992 204.093 C 385.173 204.093,385.321 203.918,385.321 203.704 C 385.321 203.490,385.512 203.157,385.745 202.964 C 385.977 202.771,386.168 202.263,386.168 201.835 C 386.168 201.407,386.359 200.899,386.591 200.706 C 386.824 200.512,387.015 199.989,387.015 199.542 C 387.015 199.024,387.162 198.730,387.420 198.730 C 387.672 198.730,387.860 198.381,387.914 197.812 C 387.967 197.263,388.144 196.923,388.356 196.965 C 388.579 197.010,388.721 196.674,388.744 196.048 C 388.793 194.682,388.815 194.574,389.107 194.307 C 389.260 194.167,389.266 194.243,389.123 194.495 C 388.916 194.860,388.948 194.865,389.360 194.531 C 389.623 194.318,389.838 193.785,389.838 193.346 C 389.838 192.907,390.040 192.434,390.286 192.296 C 390.533 192.158,390.724 191.961,390.710 191.859 C 390.595 191.017,390.753 190.233,391.108 189.878 C 391.341 189.645,391.531 188.997,391.531 188.438 C 391.531 187.794,391.687 187.361,391.955 187.258 C 392.228 187.153,392.378 186.717,392.378 186.031 C 392.378 185.429,392.562 184.814,392.802 184.615 C 393.057 184.403,393.225 183.786,393.225 183.058 C 393.225 182.247,393.364 181.800,393.649 181.690 C 393.939 181.579,394.072 181.125,394.072 180.249 C 394.072 179.348,394.187 178.970,394.462 178.970 C 394.919 178.970,395.192 178.117,395.197 176.675 C 395.199 176.112,395.392 175.493,395.625 175.300 C 395.920 175.054,396.048 174.403,396.048 173.139 C 396.048 171.792,396.156 171.289,396.471 171.168 C 396.798 171.042,396.895 170.497,396.895 168.777 C 396.895 166.985,396.978 166.549,397.318 166.549 C 397.665 166.549,397.742 166.063,397.742 163.867 C 397.742 161.754,397.826 161.186,398.138 161.186 C 398.458 161.186,398.542 160.390,398.574 157.030 C 398.604 153.831,398.708 152.771,399.024 152.421 C 399.565 151.823,399.647 130.016,399.110 129.684 C 398.890 129.548,398.859 129.612,399.014 129.879 C 399.150 130.113,399.139 130.179,398.987 130.040 C 398.651 129.733,398.665 129.916,398.624 125.194 C 398.594 121.760,398.520 121.101,398.165 121.101 C 397.818 121.101,397.742 120.615,397.742 118.419 C 397.742 116.224,397.665 115.737,397.318 115.737 C 396.983 115.737,396.895 115.332,396.895 113.785 C 396.895 111.776,396.708 110.846,396.348 111.068 C 396.236 111.138,396.116 110.507,396.082 109.667 C 396.004 107.753,395.849 106.932,395.527 106.725 C 395.326 106.596,395.133 105.523,394.926 103.387 C 394.922 103.349,394.728 103.317,394.495 103.317 C 394.175 103.317,394.072 102.972,394.072 101.905 C 394.072 100.839,393.968 100.494,393.649 100.494 C 393.323 100.494,393.225 100.132,393.225 98.933 C 393.225 97.805,393.107 97.326,392.802 97.209 C 392.543 97.109,392.378 96.682,392.378 96.109 C 392.378 95.593,392.188 94.980,391.955 94.747 C 391.722 94.515,391.531 93.988,391.531 93.578 C 391.531 93.168,391.341 92.641,391.108 92.409 C 390.875 92.176,390.685 91.546,390.685 91.008 C 390.685 90.401,390.525 89.970,390.261 89.869 C 390.020 89.777,389.838 89.356,389.838 88.890 C 389.838 88.441,389.584 87.819,389.273 87.509 C 388.959 87.195,388.709 86.568,388.709 86.097 C 388.709 85.533,388.567 85.251,388.285 85.251 C 388.003 85.251,387.862 84.968,387.862 84.404 C 387.862 83.839,387.721 83.557,387.438 83.557 C 387.169 83.557,387.015 83.286,387.015 82.812 C 387.015 82.402,386.793 81.884,386.521 81.662 C 386.219 81.414,386.191 81.336,386.450 81.460 C 386.794 81.625,386.807 81.592,386.521 81.283 C 386.327 81.074,386.168 80.544,386.168 80.104 C 386.168 79.654,385.983 79.234,385.745 79.142 C 385.512 79.053,385.321 78.748,385.321 78.466 C 385.321 78.183,385.137 77.767,384.912 77.542 C 384.686 77.317,384.419 76.800,384.316 76.393 C 384.214 75.986,383.954 75.653,383.738 75.653 C 383.488 75.653,383.345 75.339,383.345 74.789 C 383.345 74.314,383.230 73.997,383.090 74.083 C 382.950 74.170,382.703 73.860,382.540 73.394 C 382.378 72.929,382.112 72.548,381.948 72.548 C 381.785 72.548,381.651 72.230,381.651 71.842 C 381.651 71.403,381.491 71.136,381.228 71.136 C 380.945 71.136,380.805 70.853,380.805 70.280 C 380.805 69.780,380.629 69.357,380.381 69.262 C 380.148 69.173,379.958 68.859,379.958 68.565 C 379.958 68.272,379.823 68.031,379.659 68.031 C 379.494 68.031,379.438 67.904,379.534 67.749 C 379.630 67.594,379.574 67.466,379.410 67.466 C 379.245 67.466,379.111 67.291,379.111 67.076 C 379.111 66.861,378.857 66.619,378.546 66.538 C 378.165 66.438,377.982 66.153,377.982 65.658 C 377.982 65.195,377.826 64.926,377.558 64.926 C 377.323 64.926,377.135 64.675,377.135 64.361 C 377.135 64.048,376.947 63.797,376.711 63.797 C 376.446 63.797,376.288 63.529,376.288 63.082 C 376.288 62.689,376.097 62.294,375.865 62.205 C 375.632 62.116,375.441 61.879,375.441 61.680 C 375.441 61.480,375.251 61.243,375.018 61.154 C 374.785 61.065,374.594 60.670,374.594 60.277 C 374.594 59.830,374.436 59.562,374.171 59.562 C 373.938 59.562,373.747 59.368,373.747 59.130 C 373.747 58.892,373.566 58.628,373.344 58.543 C 373.122 58.458,372.807 58.008,372.645 57.543 C 372.483 57.078,372.220 56.778,372.061 56.876 C 371.899 56.976,371.771 56.799,371.771 56.474 C 371.771 56.146,371.587 55.893,371.348 55.893 C 371.115 55.893,370.924 55.702,370.924 55.469 C 370.924 55.236,370.734 55.046,370.501 55.046 C 370.236 55.046,370.078 54.778,370.078 54.331 C 370.078 53.938,369.887 53.544,369.654 53.454 C 369.421 53.365,369.231 53.111,369.231 52.890 C 369.231 52.669,369.040 52.414,368.807 52.325 C 368.574 52.236,368.384 51.986,368.384 51.769 C 368.384 51.553,368.122 51.376,367.803 51.376 C 367.463 51.376,367.299 51.251,367.408 51.075 C 367.510 50.909,367.327 50.704,367.001 50.619 C 366.672 50.532,366.408 50.234,366.408 49.948 C 366.408 49.665,366.261 49.343,366.082 49.232 C 365.863 49.097,365.831 49.160,365.986 49.427 C 366.122 49.662,366.111 49.728,365.959 49.588 C 365.704 49.355,365.664 49.225,365.596 48.412 C 365.577 48.179,365.371 47.989,365.138 47.989 C 364.905 47.989,364.714 47.812,364.714 47.595 C 364.714 47.379,364.524 47.129,364.291 47.040 C 364.058 46.950,363.867 46.683,363.867 46.445 C 363.867 46.207,363.677 46.013,363.444 46.013 C 363.211 46.013,363.020 45.822,363.020 45.589 C 363.020 45.350,362.768 45.166,362.439 45.166 C 362.099 45.166,361.935 45.041,362.044 44.865 C 362.147 44.699,361.964 44.494,361.637 44.408 C 361.311 44.323,361.044 44.077,361.044 43.863 C 361.044 43.648,360.854 43.472,360.621 43.472 C 360.386 43.472,360.198 43.221,360.198 42.908 C 360.198 42.594,360.009 42.343,359.774 42.343 C 359.541 42.343,359.351 42.152,359.351 41.920 C 359.351 41.687,359.160 41.496,358.927 41.496 C 358.694 41.496,358.504 41.306,358.504 41.073 C 358.504 40.840,358.313 40.649,358.080 40.649 C 357.848 40.649,357.657 40.474,357.657 40.259 C 357.657 40.044,357.390 39.798,357.064 39.713 C 356.738 39.628,356.555 39.423,356.657 39.257 C 356.766 39.081,356.602 38.956,356.262 38.956 C 355.934 38.956,355.681 38.771,355.681 38.532 C 355.681 38.299,355.490 38.109,355.258 38.109 C 355.022 38.109,354.834 37.858,354.834 37.544 C 354.834 37.230,354.646 36.980,354.411 36.980 C 354.178 36.980,353.987 36.789,353.987 36.556 C 353.987 36.323,353.797 36.133,353.564 36.133 C 353.331 36.133,353.140 35.942,353.140 35.709 C 353.140 35.476,352.963 35.286,352.747 35.286 C 352.531 35.286,352.281 35.095,352.191 34.862 C 352.102 34.629,351.834 34.439,351.597 34.439 C 351.359 34.439,351.164 34.248,351.164 34.016 C 351.164 33.783,350.974 33.576,350.741 33.557 C 349.928 33.489,349.798 33.449,349.565 33.194 C 349.426 33.042,349.491 33.031,349.726 33.167 C 349.993 33.322,350.057 33.290,349.921 33.071 C 349.810 32.892,349.473 32.745,349.172 32.745 C 348.812 32.745,348.624 32.551,348.624 32.181 C 348.624 31.867,348.436 31.616,348.200 31.616 C 347.968 31.616,347.777 31.426,347.777 31.193 C 347.777 30.960,347.582 30.769,347.345 30.769 C 347.107 30.769,346.839 30.579,346.750 30.346 C 346.661 30.113,346.424 29.922,346.224 29.922 C 346.025 29.922,345.788 29.732,345.699 29.499 C 345.610 29.266,345.215 29.076,344.822 29.076 C 344.375 29.076,344.107 28.917,344.107 28.652 C 344.107 28.419,343.917 28.229,343.684 28.229 C 343.451 28.229,343.260 28.053,343.260 27.838 C 343.260 27.623,342.994 27.378,342.667 27.293 C 342.341 27.207,342.158 27.002,342.261 26.836 C 342.370 26.660,342.205 26.535,341.863 26.535 C 341.542 26.535,341.061 26.281,340.795 25.970 C 340.530 25.660,340.163 25.406,339.982 25.406 C 339.800 25.406,339.578 25.215,339.489 24.982 C 339.399 24.749,339.064 24.559,338.744 24.559 C 338.424 24.559,338.088 24.368,337.999 24.135 C 337.910 23.903,337.660 23.712,337.443 23.712 C 337.227 23.712,337.050 23.522,337.050 23.289 C 337.050 23.024,336.783 22.865,336.336 22.865 C 335.943 22.865,335.548 22.675,335.458 22.442 C 335.369 22.209,335.070 22.018,334.795 22.018 C 334.519 22.018,334.227 21.764,334.145 21.454 C 334.046 21.072,333.760 20.889,333.266 20.889 C 332.803 20.889,332.534 20.733,332.534 20.466 C 332.534 20.233,332.357 20.042,332.140 20.042 C 331.924 20.042,331.677 19.861,331.592 19.639 C 331.507 19.418,331.081 19.195,330.645 19.145 C 330.195 19.094,329.882 18.901,329.922 18.701 C 329.968 18.473,329.645 18.349,329.005 18.349 C 328.315 18.349,328.017 18.221,328.017 17.925 C 328.017 17.692,327.842 17.502,327.628 17.502 C 327.414 17.502,327.087 17.319,326.902 17.095 C 326.716 16.872,326.288 16.646,325.950 16.595 C 325.612 16.543,325.365 16.350,325.402 16.166 C 325.438 15.982,325.034 15.751,324.504 15.651 C 323.973 15.552,323.471 15.292,323.388 15.075 C 323.304 14.857,322.914 14.679,322.521 14.679 C 322.128 14.679,321.807 14.516,321.807 14.317 C 321.807 14.118,321.457 13.927,321.030 13.893 C 320.603 13.859,320.113 13.641,319.941 13.408 C 319.768 13.175,319.292 12.985,318.882 12.985 C 318.408 12.985,318.137 12.831,318.137 12.562 C 318.137 12.283,317.858 12.138,317.325 12.138 C 316.878 12.138,316.354 11.948,316.161 11.715 C 315.968 11.482,315.395 11.291,314.889 11.291 C 314.246 11.291,313.929 11.141,313.838 10.792 C 313.757 10.484,313.397 10.267,312.898 10.226 C 312.452 10.189,311.982 9.969,311.852 9.737 C 311.705 9.474,311.197 9.315,310.501 9.315 C 309.698 9.315,309.386 9.197,309.386 8.892 C 309.386 8.596,309.088 8.469,308.398 8.469 C 307.708 8.469,307.410 8.341,307.410 8.045 C 307.410 7.812,307.315 7.637,307.198 7.655 C 306.158 7.819,304.869 7.567,304.869 7.198 C 304.869 6.884,304.539 6.775,303.590 6.775 C 302.714 6.775,302.260 6.642,302.149 6.351 C 302.038 6.064,301.588 5.928,300.746 5.928 C 299.832 5.928,299.506 5.817,299.506 5.505 C 299.506 5.272,299.411 5.096,299.294 5.115 C 299.178 5.133,298.987 5.117,298.871 5.079 C 298.345 4.909,298.022 4.867,296.965 4.834 C 296.166 4.809,295.836 4.675,295.836 4.375 C 295.836 4.008,293.878 3.726,292.661 3.919 C 292.544 3.937,292.481 3.793,292.519 3.599 C 292.569 3.351,292.024 3.222,290.685 3.163 C 289.244 3.100,288.779 2.979,288.779 2.669 C 288.779 2.344,288.308 2.258,286.521 2.258 C 284.702 2.258,284.263 2.176,284.263 1.835 C 284.263 1.488,283.776 1.411,281.581 1.411 C 279.385 1.411,278.899 1.335,278.899 0.988 C 278.899 0.634,278.321 0.565,275.394 0.565 C 272.855 0.565,271.850 0.467,271.746 0.212 C 271.638 -0.054,271.529 -0.036,271.303 0.282 C 271.100 0.569,271.002 0.592,270.999 0.353 C 270.996 0.076,268.123 0.000,257.586 0.000 C 248.836 0.000,244.178 0.098,244.178 0.282 M268.031 10.450 C 274.814 10.991,281.597 12.025,287.227 13.376 C 288.158 13.599,289.746 13.980,290.755 14.222 C 291.764 14.464,293.255 14.861,294.069 15.106 C 294.882 15.350,296.153 15.730,296.892 15.950 C 299.064 16.596,303.244 18.054,304.206 18.500 C 304.696 18.727,305.237 18.913,305.410 18.913 C 305.583 18.913,305.945 19.034,306.214 19.182 C 306.484 19.330,307.212 19.664,307.833 19.925 C 310.578 21.078,311.775 21.635,316.161 23.800 C 320.176 25.782,327.814 30.058,328.711 30.826 C 328.873 30.965,329.640 31.491,330.416 31.996 C 332.919 33.622,337.980 37.283,338.462 37.815 C 338.539 37.901,339.111 38.344,339.732 38.801 C 340.353 39.258,340.924 39.702,341.002 39.788 C 341.080 39.874,342.668 41.278,344.531 42.908 C 350.404 48.045,355.878 53.851,361.075 60.457 C 363.468 63.500,364.106 64.372,366.408 67.754 C 367.828 69.840,367.835 69.851,369.715 72.914 C 372.592 77.603,374.991 82.097,377.281 87.085 C 378.765 90.319,379.393 91.777,379.393 91.990 C 379.393 92.245,380.371 94.661,380.781 95.422 C 380.910 95.660,381.109 96.295,381.225 96.834 C 381.340 97.372,381.527 97.939,381.641 98.095 C 381.848 98.377,382.653 100.737,383.086 102.329 C 383.212 102.795,383.582 104.065,383.907 105.152 C 384.232 106.239,384.694 107.953,384.934 108.963 C 385.174 109.972,385.553 111.560,385.777 112.491 C 389.292 127.167,389.871 146.283,387.273 161.891 C 387.118 162.823,386.868 164.347,386.718 165.279 C 386.567 166.210,386.259 167.735,386.032 168.666 C 385.805 169.598,385.372 171.376,385.070 172.618 C 384.384 175.438,383.729 177.910,383.361 179.068 C 383.206 179.557,382.817 180.783,382.498 181.793 C 382.178 182.802,381.806 183.881,381.670 184.192 C 381.451 184.692,380.743 186.600,379.478 190.103 C 379.257 190.715,378.767 191.890,378.388 192.714 C 378.009 193.539,377.368 194.944,376.964 195.836 C 369.463 212.389,357.368 228.402,343.251 240.470 C 338.505 244.528,336.222 246.294,331.483 249.574 C 329.622 250.862,325.678 253.360,323.924 254.361 C 322.992 254.893,322.013 255.455,321.747 255.610 C 318.686 257.401,309.193 261.862,305.011 263.476 C 301.932 264.663,298.681 265.813,296.965 266.322 C 292.783 267.561,289.455 268.420,285.533 269.272 C 283.980 269.609,281.866 270.071,280.835 270.299 C 279.803 270.527,278.597 270.711,278.153 270.708 C 277.709 270.706,276.140 270.892,274.665 271.122 C 263.623 272.844,246.898 272.486,235.568 270.285 C 234.481 270.074,232.893 269.775,232.040 269.621 C 230.080 269.268,227.271 268.628,225.265 268.078 C 224.411 267.844,222.759 267.399,221.595 267.090 C 220.430 266.781,218.906 266.318,218.207 266.061 C 217.509 265.803,216.556 265.486,216.090 265.355 C 214.550 264.922,211.902 263.944,209.825 263.041 C 209.174 262.758,208.517 262.526,208.366 262.526 C 208.215 262.526,207.731 262.344,207.292 262.121 C 206.852 261.898,205.603 261.316,204.517 260.828 C 201.787 259.601,196.817 257.146,195.625 256.435 C 195.081 256.112,193.874 255.431,192.943 254.924 C 187.201 251.795,178.531 245.684,173.350 241.115 C 172.356 240.238,171.149 239.234,170.669 238.885 C 169.472 238.015,161.080 229.499,159.193 227.241 C 158.350 226.231,157.592 225.342,157.508 225.265 C 157.370 225.136,155.743 223.120,154.693 221.775 C 154.460 221.476,153.938 220.837,153.534 220.355 C 153.129 219.872,152.186 218.589,151.440 217.502 C 148.490 213.209,146.507 210.243,146.507 210.124 C 146.507 210.055,146.271 209.654,145.982 209.233 C 144.502 207.074,140.411 199.302,138.362 194.759 C 137.842 193.605,137.239 192.323,137.021 191.911 C 136.804 191.499,136.627 190.947,136.627 190.685 C 136.627 190.422,136.444 189.870,136.220 189.458 C 135.174 187.530,132.248 178.748,130.893 173.465 C 126.538 156.494,125.724 137.642,128.589 120.113 C 129.867 112.291,130.734 108.763,133.512 100.071 C 134.862 95.845,135.292 94.707,136.246 92.829 C 136.455 92.417,136.627 91.865,136.627 91.602 C 136.627 91.339,136.801 90.787,137.015 90.375 C 137.229 89.963,137.658 89.054,137.969 88.356 C 139.025 85.984,142.111 79.752,142.927 78.345 C 143.374 77.575,144.190 76.114,144.740 75.099 C 145.290 74.084,145.912 73.053,146.123 72.808 C 146.334 72.563,146.507 72.287,146.507 72.196 C 146.507 71.739,154.966 59.730,155.803 58.998 C 155.892 58.920,156.915 57.713,158.077 56.316 C 160.490 53.413,169.325 44.361,170.698 43.384 C 171.201 43.026,172.157 42.228,172.821 41.610 C 175.506 39.116,180.251 35.500,185.039 32.300 C 186.591 31.263,188.370 30.069,188.991 29.648 C 189.612 29.227,190.951 28.430,191.966 27.878 C 192.981 27.325,194.442 26.509,195.212 26.065 C 196.827 25.133,201.635 22.752,204.517 21.458 C 205.603 20.970,206.852 20.389,207.292 20.166 C 207.731 19.943,208.220 19.760,208.378 19.760 C 208.536 19.760,209.066 19.577,209.555 19.354 C 211.149 18.627,212.671 18.036,214.397 17.476 C 215.328 17.173,216.471 16.795,216.937 16.635 C 226.264 13.440,237.944 11.133,248.271 10.446 C 250.755 10.280,253.232 10.096,253.776 10.037 C 255.283 9.872,263.909 10.122,268.031 10.450 M256.175 24.468 C 243.278 25.200,241.457 25.416,232.604 27.272 C 230.040 27.810,227.492 28.444,225.970 28.923 C 225.349 29.118,223.888 29.561,222.724 29.907 C 220.849 30.464,218.647 31.241,214.961 32.648 C 213.791 33.095,212.643 33.572,211.076 34.261 C 210.069 34.703,202.227 38.571,201.553 38.957 C 197.071 41.525,195.704 42.395,190.683 45.870 C 181.663 52.111,171.751 61.736,164.766 71.034 C 162.646 73.857,158.927 79.221,158.927 79.458 C 158.927 79.525,158.597 80.062,158.193 80.651 C 157.790 81.240,157.344 81.976,157.204 82.287 C 157.063 82.597,156.506 83.613,155.965 84.545 C 154.882 86.413,152.268 91.653,151.318 93.860 C 150.984 94.637,150.597 95.526,150.458 95.836 C 150.320 96.147,149.931 97.100,149.593 97.953 C 149.256 98.807,148.804 99.906,148.590 100.396 C 148.376 100.885,148.200 101.420,148.200 101.586 C 148.200 101.751,148.026 102.303,147.814 102.813 C 146.321 106.393,144.610 112.905,143.158 120.536 C 139.658 138.922,141.481 162.204,147.778 179.534 C 148.580 181.741,150.049 185.532,150.458 186.450 C 150.597 186.761,150.980 187.650,151.310 188.426 C 152.194 190.504,155.381 196.795,156.236 198.149 C 156.643 198.794,157.099 199.601,157.250 199.943 C 157.401 200.285,157.745 200.905,158.014 201.321 C 158.283 201.737,159.051 202.944,159.719 204.003 C 161.892 207.446,164.911 211.569,167.948 215.240 C 172.452 220.684,178.865 227.105,183.753 231.065 C 184.894 231.989,186.158 233.013,186.562 233.341 C 187.617 234.195,193.645 238.532,193.779 238.532 C 193.840 238.532,194.694 239.070,195.675 239.729 C 196.657 240.387,197.713 241.066,198.024 241.237 C 198.335 241.409,199.224 241.912,200.000 242.354 C 205.614 245.553,208.585 246.961,216.373 250.116 C 217.459 250.556,218.666 250.996,219.054 251.094 C 219.442 251.191,220.014 251.382,220.325 251.518 C 220.839 251.743,222.738 252.340,226.112 253.336 C 235.989 256.254,245.602 257.520,257.869 257.520 C 265.810 257.520,268.743 257.340,274.947 256.473 C 278.903 255.920,285.170 254.686,287.227 254.054 C 287.692 253.911,288.836 253.585,289.767 253.331 C 292.610 252.553,295.506 251.617,298.236 250.593 C 301.085 249.525,301.964 249.181,302.752 248.827 C 303.218 248.618,304.234 248.175,305.011 247.843 C 308.326 246.424,315.926 242.464,318.080 241.032 C 318.748 240.589,319.350 240.226,319.418 240.226 C 319.881 240.226,331.247 232.037,332.110 231.082 C 332.265 230.910,333.472 229.858,334.792 228.744 C 337.452 226.500,343.348 220.557,345.947 217.502 C 346.871 216.415,347.709 215.462,347.807 215.385 C 348.013 215.223,352.499 209.290,353.140 208.331 C 353.373 207.983,353.945 207.169,354.411 206.523 C 355.381 205.176,355.193 205.477,358.310 200.282 C 360.336 196.905,363.423 190.919,364.933 187.438 C 365.169 186.895,365.486 186.205,365.637 185.905 C 365.788 185.605,366.014 185.033,366.139 184.635 C 366.264 184.236,366.634 183.211,366.961 182.357 C 367.562 180.792,369.060 176.358,369.870 173.747 C 370.288 172.401,371.079 169.229,371.911 165.561 C 372.303 163.831,372.783 161.019,373.668 155.258 C 374.400 150.491,374.396 132.187,373.663 126.888 C 372.772 120.451,371.572 114.519,370.180 109.668 C 368.891 105.174,368.586 104.233,367.396 101.059 C 367.163 100.438,366.794 99.453,366.576 98.871 C 364.908 94.411,361.548 87.261,359.780 84.404 C 359.444 83.860,359.083 83.183,358.978 82.899 C 358.873 82.615,358.320 81.663,357.749 80.782 C 357.178 79.902,356.136 78.292,355.434 77.205 C 349.941 68.703,340.956 58.533,333.380 52.246 C 332.216 51.279,331.007 50.275,330.693 50.015 C 330.380 49.754,329.617 49.165,328.999 48.705 C 328.381 48.245,327.733 47.736,327.558 47.576 C 327.382 47.415,326.955 47.092,326.608 46.860 C 326.260 46.627,325.451 46.043,324.809 45.563 C 323.764 44.783,321.946 43.570,320.623 42.772 C 315.180 39.489,312.818 38.170,309.527 36.576 C 307.354 35.523,305.366 34.556,305.110 34.425 C 302.838 33.267,294.535 30.175,291.461 29.342 C 283.894 27.291,280.783 26.609,275.371 25.811 C 271.214 25.199,267.947 24.895,263.514 24.706 C 261.341 24.614,259.118 24.504,258.574 24.463 C 258.031 24.421,256.951 24.424,256.175 24.468 M267.749 34.702 C 276.017 35.410,289.520 38.417,294.566 40.674 C 294.876 40.813,296.015 41.254,297.096 41.655 C 300.355 42.863,306.787 45.925,310.092 47.841 C 311.023 48.381,311.976 48.924,312.209 49.048 C 314.345 50.182,321.597 55.131,322.922 56.360 C 323.315 56.724,323.724 57.022,323.832 57.022 C 324.085 57.022,328.229 60.587,330.365 62.641 C 331.268 63.509,332.112 64.258,332.240 64.304 C 332.369 64.351,333.711 65.748,335.222 67.410 C 336.733 69.071,338.439 70.939,339.012 71.560 C 345.340 78.412,353.473 91.844,357.216 101.623 C 357.780 103.098,358.355 104.559,358.492 104.869 C 359.061 106.159,361.347 113.992,361.993 116.867 C 368.371 145.258,363.415 174.326,348.059 198.586 C 346.267 201.416,340.607 209.007,338.910 210.854 C 338.275 211.545,336.994 212.943,336.063 213.959 C 332.788 217.535,328.720 221.368,325.476 223.934 C 324.312 224.856,322.909 225.972,322.358 226.415 C 321.087 227.438,319.469 228.566,316.443 230.540 C 315.124 231.401,313.726 232.321,313.338 232.585 C 312.950 232.850,312.442 233.153,312.209 233.259 C 311.976 233.365,311.023 233.894,310.092 234.434 C 306.723 236.387,300.358 239.422,297.096 240.632 C 296.015 241.032,294.876 241.474,294.566 241.613 C 292.183 242.679,284.174 244.893,278.758 245.984 C 264.128 248.930,247.086 248.611,233.028 245.129 C 227.229 243.693,220.075 241.364,216.655 239.798 C 212.480 237.887,211.162 237.269,209.386 236.390 C 208.260 235.833,207.084 235.229,206.772 235.049 C 206.459 234.869,205.126 234.098,203.808 233.336 C 192.277 226.668,181.152 216.701,172.428 205.222 C 169.122 200.873,168.023 199.178,164.008 192.237 C 162.708 189.990,159.467 182.990,158.322 179.958 C 157.970 179.026,157.596 178.137,157.491 177.982 C 157.385 177.826,157.204 177.259,157.089 176.721 C 156.974 176.182,156.779 175.547,156.657 175.309 C 156.534 175.071,156.167 173.987,155.841 172.900 C 155.514 171.814,155.132 170.543,154.991 170.078 C 152.752 162.680,151.017 150.044,151.017 141.143 C 151.017 132.243,152.752 119.606,154.991 112.209 C 155.132 111.743,155.517 110.473,155.846 109.386 C 156.175 108.299,156.550 107.156,156.680 106.845 C 156.810 106.535,156.996 105.963,157.094 105.575 C 157.192 105.187,157.442 104.488,157.650 104.023 C 157.858 103.557,158.242 102.604,158.504 101.905 C 159.083 100.357,159.536 99.255,160.127 97.953 C 160.717 96.655,163.694 90.592,164.008 90.049 C 173.197 74.197,184.610 61.509,197.209 53.139 C 201.289 50.429,203.323 49.118,203.447 49.118 C 203.530 49.118,204.504 48.576,205.610 47.913 C 208.420 46.231,215.238 42.915,217.962 41.907 C 229.796 37.525,239.043 35.370,248.936 34.689 C 251.365 34.522,253.416 34.320,253.493 34.240 C 253.695 34.032,263.727 34.358,267.749 34.702 M255.138 58.230 C 253.094 59.780,252.956 60.535,252.941 70.189 C 252.927 79.417,253.100 78.751,250.718 78.767 C 238.743 78.847,224.409 86.273,219.129 95.131 C 214.385 103.089,213.217 114.709,216.519 121.080 C 216.646 121.324,217.095 122.223,217.516 123.077 C 219.142 126.368,222.189 129.958,225.510 132.497 C 227.204 133.792,231.880 136.627,232.322 136.627 C 232.467 136.627,233.088 136.888,233.701 137.207 C 234.824 137.793,239.524 139.549,241.355 140.068 C 241.898 140.222,243.550 140.709,245.025 141.151 C 247.614 141.927,248.983 142.294,251.376 142.852 C 251.997 142.997,252.950 143.241,253.493 143.394 C 254.770 143.754,261.242 145.373,262.526 145.654 C 263.070 145.773,264.531 146.156,265.773 146.506 C 267.015 146.856,268.547 147.245,269.177 147.370 C 269.807 147.496,270.632 147.719,271.011 147.867 C 271.391 148.014,272.653 148.417,273.818 148.762 C 274.982 149.106,276.335 149.566,276.825 149.782 C 277.314 149.999,277.829 150.176,277.969 150.176 C 279.327 150.176,285.860 154.195,288.174 156.452 C 294.062 162.199,295.359 172.984,290.976 179.760 C 290.544 180.428,290.191 181.050,290.191 181.142 C 290.191 182.084,285.931 186.072,283.123 187.760 C 275.240 192.499,262.008 194.623,251.759 192.794 C 248.077 192.138,244.464 191.241,243.147 190.656 C 242.658 190.439,242.110 190.261,241.929 190.261 C 241.268 190.261,236.346 187.711,234.013 186.160 C 228.472 182.477,224.979 177.760,222.835 171.066 C 221.406 166.602,220.000 165.286,216.655 165.281 C 211.401 165.274,209.422 170.147,212.167 176.331 C 212.384 176.820,212.562 177.349,212.562 177.507 C 212.562 177.665,212.746 178.154,212.971 178.594 C 213.197 179.033,213.648 179.965,213.973 180.663 C 214.299 181.362,214.718 182.188,214.905 182.498 C 222.222 194.675,232.450 200.793,249.345 203.098 C 251.023 203.327,252.515 203.589,252.662 203.679 C 252.819 203.776,252.934 207.228,252.941 212.084 C 252.956 221.753,253.094 222.506,255.138 224.056 C 257.923 226.168,261.986 224.554,262.553 221.111 C 262.675 220.368,262.783 216.182,262.792 211.810 L 262.809 203.859 264.996 203.683 C 268.248 203.423,273.228 202.666,274.604 202.224 C 275.269 202.010,276.010 201.835,276.250 201.835 C 278.188 201.835,286.044 198.384,290.047 195.775 C 307.406 184.461,310.244 158.622,295.463 146.471 C 294.504 145.683,293.447 144.809,293.115 144.531 C 292.467 143.987,286.334 140.296,286.078 140.296 C 285.994 140.296,285.392 140.059,284.741 139.769 C 283.223 139.092,279.245 137.676,277.064 137.037 C 276.133 136.763,274.862 136.381,274.241 136.188 C 273.620 135.995,272.287 135.626,271.277 135.368 C 270.268 135.111,268.807 134.724,268.031 134.508 C 267.255 134.292,265.476 133.850,264.079 133.526 C 259.086 132.366,257.850 132.063,256.495 131.666 C 255.740 131.444,254.926 131.263,254.685 131.263 C 254.445 131.263,253.539 131.064,252.671 130.820 C 251.804 130.576,250.459 130.208,249.682 130.003 C 246.400 129.135,241.698 127.665,239.997 126.975 C 238.128 126.217,237.185 125.806,236.133 125.293 C 220.845 117.839,223.524 97.293,240.607 90.983 C 247.678 88.372,261.609 87.920,269.627 90.043 C 279.214 92.581,284.725 97.477,288.190 106.532 C 290.007 111.279,292.519 112.866,296.401 111.718 C 304.562 109.304,297.411 92.597,285.109 85.335 C 282.661 83.889,279.116 82.145,278.626 82.145 C 278.476 82.145,277.937 81.970,277.427 81.756 C 275.359 80.888,270.968 79.828,266.761 79.181 C 265.131 78.930,263.585 78.663,263.327 78.589 C 262.903 78.466,262.847 77.560,262.762 69.480 L 262.668 60.508 261.967 59.486 C 260.354 57.134,257.320 56.576,255.138 58.230 M3.036 135.786 C 2.844 136.093,2.400 136.344,2.049 136.344 C 1.670 136.344,1.411 136.516,1.411 136.768 C 1.411 137.001,1.221 137.191,0.988 137.191 C 0.755 137.191,0.565 137.382,0.565 137.615 C 0.565 137.848,0.438 138.038,0.282 138.038 C 0.114 138.038,0.000 139.120,0.000 140.720 C 0.000 142.675,0.096 143.403,0.353 143.406 C 0.592 143.409,0.569 143.507,0.282 143.710 C -0.036 143.935,-0.054 144.045,0.212 144.152 C 0.406 144.231,0.565 144.475,0.565 144.695 C 0.565 144.915,0.755 145.095,0.988 145.095 C 1.221 145.095,1.411 145.286,1.411 145.519 C 1.411 145.770,1.670 145.942,2.049 145.942 C 2.400 145.942,2.844 146.194,3.036 146.501 C 3.647 147.480,29.076 147.334,29.076 146.351 C 29.076 146.147,29.425 145.939,29.852 145.890 C 30.279 145.841,30.613 145.674,30.595 145.519 C 30.578 145.363,30.800 145.070,31.089 144.868 C 31.448 144.617,31.616 144.153,31.616 143.416 C 31.616 142.714,31.765 142.276,32.040 142.170 C 32.600 141.955,32.600 140.331,32.040 140.116 C 31.765 140.011,31.616 139.573,31.616 138.871 C 31.616 138.068,31.452 137.673,30.981 137.343 C 30.632 137.098,30.382 136.805,30.425 136.692 C 30.469 136.578,30.183 136.445,29.790 136.396 C 29.397 136.347,29.076 136.140,29.076 135.935 C 29.076 134.953,3.647 134.807,3.036 135.786 " stroke="none" fill="#3c6c8c" fill-rule="evenodd"></path><path id="path1" d="M253.776 10.037 C 253.232 10.096,250.755 10.280,248.271 10.446 C 237.944 11.133,226.264 13.440,216.937 16.635 C 216.471 16.795,215.328 17.173,214.397 17.476 C 212.671 18.036,211.149 18.627,209.555 19.354 C 209.066 19.577,208.536 19.760,208.378 19.760 C 208.220 19.760,207.731 19.943,207.292 20.166 C 206.852 20.389,205.603 20.970,204.517 21.458 C 201.635 22.752,196.827 25.133,195.212 26.065 C 194.442 26.509,192.981 27.325,191.966 27.878 C 190.951 28.430,189.612 29.227,188.991 29.648 C 188.370 30.069,186.591 31.263,185.039 32.300 C 180.251 35.500,175.506 39.116,172.821 41.610 C 172.157 42.228,171.201 43.026,170.698 43.384 C 169.325 44.361,160.490 53.413,158.077 56.316 C 156.915 57.713,155.892 58.920,155.803 58.998 C 154.966 59.730,146.507 71.739,146.507 72.196 C 146.507 72.287,146.334 72.563,146.123 72.808 C 145.912 73.053,145.290 74.084,144.740 75.099 C 144.190 76.114,143.374 77.575,142.927 78.345 C 142.111 79.752,139.025 85.984,137.969 88.356 C 137.658 89.054,137.229 89.963,137.015 90.375 C 136.801 90.787,136.627 91.339,136.627 91.602 C 136.627 91.865,136.455 92.417,136.246 92.829 C 135.292 94.707,134.862 95.845,133.512 100.071 C 130.734 108.763,129.867 112.291,128.589 120.113 C 125.898 136.577,126.434 153.938,130.140 170.360 C 131.506 176.414,134.862 186.957,136.220 189.458 C 136.444 189.870,136.627 190.422,136.627 190.685 C 136.627 190.947,136.804 191.499,137.021 191.911 C 137.239 192.323,137.842 193.605,138.362 194.759 C 140.411 199.302,144.502 207.074,145.982 209.233 C 146.271 209.654,146.507 210.055,146.507 210.124 C 146.507 210.243,148.490 213.209,151.440 217.502 C 152.186 218.589,153.129 219.872,153.534 220.355 C 153.938 220.837,154.460 221.476,154.693 221.775 C 155.743 223.120,157.370 225.136,157.508 225.265 C 157.592 225.342,158.350 226.231,159.193 227.241 C 161.080 229.499,169.472 238.015,170.669 238.885 C 171.149 239.234,172.356 240.238,173.350 241.115 C 178.531 245.684,187.201 251.795,192.943 254.924 C 193.874 255.431,195.081 256.112,195.625 256.435 C 196.817 257.146,201.787 259.601,204.517 260.828 C 205.603 261.316,206.852 261.898,207.292 262.121 C 207.731 262.344,208.215 262.526,208.366 262.526 C 208.517 262.526,209.174 262.758,209.825 263.041 C 211.902 263.944,214.550 264.922,216.090 265.355 C 216.556 265.486,217.509 265.803,218.207 266.061 C 218.906 266.318,220.430 266.781,221.595 267.090 C 222.759 267.399,224.411 267.844,225.265 268.078 C 227.271 268.628,230.080 269.268,232.040 269.621 C 232.893 269.775,234.481 270.074,235.568 270.285 C 246.898 272.486,263.623 272.844,274.665 271.122 C 276.140 270.892,277.709 270.706,278.153 270.708 C 278.597 270.711,279.803 270.527,280.835 270.299 C 281.866 270.071,283.980 269.609,285.533 269.272 C 291.040 268.076,296.246 266.645,300.353 265.201 C 306.599 263.003,309.703 261.669,316.666 258.190 C 319.196 256.927,321.482 255.766,321.747 255.610 C 322.013 255.455,322.992 254.893,323.924 254.361 C 327.735 252.186,333.162 248.537,337.312 245.360 C 354.158 232.464,368.460 214.600,376.964 195.836 C 377.368 194.944,378.009 193.539,378.388 192.714 C 378.767 191.890,379.257 190.715,379.478 190.103 C 380.743 186.600,381.451 184.692,381.670 184.192 C 381.806 183.881,382.178 182.802,382.498 181.793 C 382.817 180.783,383.206 179.557,383.361 179.068 C 383.729 177.910,384.384 175.438,385.070 172.618 C 385.372 171.376,385.805 169.598,386.032 168.666 C 386.259 167.735,386.567 166.210,386.718 165.279 C 386.868 164.347,387.118 162.823,387.273 161.891 C 389.871 146.283,389.292 127.167,385.777 112.491 C 385.553 111.560,385.174 109.972,384.934 108.963 C 384.694 107.953,384.232 106.239,383.907 105.152 C 383.582 104.065,383.212 102.795,383.086 102.329 C 382.653 100.737,381.848 98.377,381.641 98.095 C 381.527 97.939,381.340 97.372,381.225 96.834 C 381.109 96.295,380.910 95.660,380.781 95.422 C 380.371 94.661,379.393 92.245,379.393 91.990 C 379.393 91.777,378.765 90.319,377.281 87.085 C 374.991 82.097,372.592 77.603,369.715 72.914 C 367.835 69.851,367.828 69.840,366.408 67.754 C 364.106 64.372,363.468 63.500,361.075 60.457 C 355.878 53.851,350.404 48.045,344.531 42.908 C 342.668 41.278,341.080 39.874,341.002 39.788 C 340.924 39.702,340.353 39.258,339.732 38.801 C 339.111 38.344,338.539 37.901,338.462 37.815 C 337.980 37.283,332.919 33.622,330.416 31.996 C 329.640 31.491,328.873 30.965,328.711 30.826 C 327.814 30.058,320.176 25.782,316.161 23.800 C 311.775 21.635,310.578 21.078,307.833 19.925 C 307.212 19.664,306.484 19.330,306.214 19.182 C 305.945 19.034,305.583 18.913,305.410 18.913 C 305.237 18.913,304.696 18.727,304.206 18.500 C 303.244 18.054,299.064 16.596,296.892 15.950 C 296.153 15.730,294.882 15.350,294.069 15.106 C 293.255 14.861,291.764 14.464,290.755 14.222 C 289.746 13.980,288.158 13.599,287.227 13.376 C 277.868 11.130,260.039 9.350,253.776 10.037 M263.514 24.706 C 267.947 24.895,271.214 25.199,275.371 25.811 C 280.783 26.609,283.894 27.291,291.461 29.342 C 294.535 30.175,302.838 33.267,305.110 34.425 C 305.366 34.556,307.354 35.523,309.527 36.576 C 312.818 38.170,315.180 39.489,320.623 42.772 C 321.946 43.570,323.764 44.783,324.809 45.563 C 325.451 46.043,326.260 46.627,326.608 46.860 C 326.955 47.092,327.382 47.415,327.558 47.576 C 327.733 47.736,328.381 48.245,328.999 48.705 C 329.617 49.165,330.380 49.754,330.693 50.015 C 331.007 50.275,332.216 51.279,333.380 52.246 C 340.956 58.533,349.941 68.703,355.434 77.205 C 356.136 78.292,357.178 79.902,357.749 80.782 C 358.320 81.663,358.873 82.615,358.978 82.899 C 359.083 83.183,359.444 83.860,359.780 84.404 C 361.548 87.261,364.908 94.411,366.576 98.871 C 366.794 99.453,367.163 100.438,367.396 101.059 C 368.392 103.716,368.630 104.408,369.187 106.281 C 373.234 119.879,374.172 126.470,374.168 141.284 C 374.166 152.422,374.171 152.356,372.732 161.186 C 371.825 166.756,370.565 171.749,368.495 177.982 C 367.979 179.534,367.289 181.503,366.961 182.357 C 366.634 183.211,366.264 184.236,366.139 184.635 C 366.014 185.033,365.788 185.605,365.637 185.905 C 365.486 186.205,365.169 186.895,364.933 187.438 C 363.423 190.919,360.336 196.905,358.310 200.282 C 355.193 205.477,355.381 205.176,354.411 206.523 C 353.945 207.169,353.373 207.983,353.140 208.331 C 352.499 209.290,348.013 215.223,347.807 215.385 C 347.709 215.462,346.871 216.415,345.947 217.502 C 343.348 220.557,337.452 226.500,334.792 228.744 C 333.472 229.858,332.265 230.910,332.110 231.082 C 331.247 232.037,319.881 240.226,319.418 240.226 C 319.350 240.226,318.748 240.589,318.080 241.032 C 315.926 242.464,308.326 246.424,305.011 247.843 C 304.234 248.175,303.218 248.618,302.752 248.827 C 301.964 249.181,301.085 249.525,298.236 250.593 C 295.506 251.617,292.610 252.553,289.767 253.331 C 288.836 253.585,287.692 253.911,287.227 254.054 C 285.170 254.686,278.903 255.920,274.947 256.473 C 268.743 257.340,265.810 257.520,257.869 257.520 C 247.112 257.520,243.332 257.139,232.886 255.003 C 230.561 254.528,228.073 253.915,226.112 253.336 C 222.738 252.340,220.839 251.743,220.325 251.518 C 220.014 251.382,219.442 251.191,219.054 251.094 C 217.549 250.716,209.940 247.519,206.493 245.815 C 203.741 244.455,202.915 244.015,200.000 242.354 C 199.224 241.912,198.335 241.409,198.024 241.237 C 197.713 241.066,196.657 240.387,195.675 239.729 C 194.694 239.070,193.840 238.532,193.779 238.532 C 193.645 238.532,187.617 234.195,186.562 233.341 C 186.158 233.013,184.894 231.989,183.753 231.065 C 175.166 224.108,165.630 213.371,159.719 204.003 C 159.051 202.944,158.283 201.737,158.014 201.321 C 157.745 200.905,157.401 200.285,157.250 199.943 C 157.099 199.601,156.643 198.794,156.236 198.149 C 155.381 196.795,152.194 190.504,151.310 188.426 C 150.980 187.650,150.597 186.761,150.458 186.450 C 150.196 185.861,149.297 183.585,148.565 181.651 C 142.073 164.523,139.842 143.978,142.434 125.194 C 143.537 117.200,145.880 107.450,147.814 102.813 C 148.026 102.303,148.200 101.751,148.200 101.586 C 148.200 101.420,148.376 100.885,148.590 100.396 C 148.804 99.906,149.256 98.807,149.593 97.953 C 149.931 97.100,150.320 96.147,150.458 95.836 C 150.597 95.526,150.984 94.637,151.318 93.860 C 152.268 91.653,154.882 86.413,155.965 84.545 C 156.506 83.613,157.063 82.597,157.204 82.287 C 157.344 81.976,157.790 81.240,158.193 80.651 C 158.597 80.062,158.927 79.525,158.927 79.458 C 158.927 79.221,162.646 73.857,164.766 71.034 C 171.751 61.736,181.663 52.111,190.683 45.870 C 195.704 42.395,197.071 41.525,201.553 38.957 C 202.227 38.571,210.069 34.703,211.076 34.261 C 212.643 33.572,213.791 33.095,214.961 32.648 C 218.647 31.241,220.849 30.464,222.724 29.907 C 223.888 29.561,225.349 29.118,225.970 28.923 C 227.492 28.444,230.040 27.810,232.604 27.272 C 241.457 25.416,243.278 25.200,256.175 24.468 C 256.951 24.424,258.031 24.421,258.574 24.463 C 259.118 24.504,261.341 24.614,263.514 24.706 M253.493 34.240 C 253.416 34.320,251.365 34.522,248.936 34.689 C 242.439 35.137,236.637 36.139,229.781 37.998 C 228.231 38.418,220.297 41.042,217.962 41.907 C 215.238 42.915,208.420 46.231,205.610 47.913 C 204.504 48.576,203.530 49.118,203.447 49.118 C 203.323 49.118,201.289 50.429,197.209 53.139 C 184.610 61.509,173.197 74.197,164.008 90.049 C 163.694 90.592,160.717 96.655,160.127 97.953 C 159.536 99.255,159.083 100.357,158.504 101.905 C 158.242 102.604,157.858 103.557,157.650 104.023 C 157.442 104.488,157.192 105.187,157.094 105.575 C 156.996 105.963,156.810 106.535,156.680 106.845 C 156.550 107.156,156.175 108.299,155.846 109.386 C 155.517 110.473,155.132 111.743,154.991 112.209 C 152.752 119.606,151.017 132.243,151.017 141.143 C 151.017 150.044,152.752 162.680,154.991 170.078 C 155.132 170.543,155.514 171.814,155.841 172.900 C 156.167 173.987,156.534 175.071,156.657 175.309 C 156.779 175.547,156.974 176.182,157.089 176.721 C 157.204 177.259,157.385 177.826,157.491 177.982 C 157.596 178.137,157.970 179.026,158.322 179.958 C 159.467 182.990,162.708 189.990,164.008 192.237 C 168.023 199.178,169.122 200.873,172.428 205.222 C 181.152 216.701,192.277 226.668,203.808 233.336 C 205.126 234.098,206.459 234.869,206.772 235.049 C 207.084 235.229,208.260 235.833,209.386 236.390 C 211.162 237.269,212.480 237.887,216.655 239.798 C 237.671 249.418,266.841 250.582,291.179 242.771 C 292.731 242.273,294.255 241.752,294.566 241.613 C 294.876 241.474,296.015 241.032,297.096 240.632 C 300.358 239.422,306.723 236.387,310.092 234.434 C 311.023 233.894,311.976 233.365,312.209 233.259 C 312.442 233.153,312.950 232.850,313.338 232.585 C 313.726 232.321,315.124 231.401,316.443 230.540 C 319.469 228.566,321.087 227.438,322.358 226.415 C 322.909 225.972,324.312 224.856,325.476 223.934 C 328.720 221.368,332.788 217.535,336.063 213.959 C 336.994 212.943,338.275 211.545,338.910 210.854 C 361.038 186.764,370.287 146.401,361.189 113.620 C 360.490 111.100,358.748 105.449,358.492 104.869 C 358.355 104.559,357.780 103.098,357.216 101.623 C 353.473 91.844,345.340 78.412,339.012 71.560 C 338.439 70.939,336.733 69.071,335.222 67.410 C 333.711 65.748,332.369 64.351,332.240 64.304 C 332.112 64.258,331.268 63.509,330.365 62.641 C 328.229 60.587,324.085 57.022,323.832 57.022 C 323.724 57.022,323.315 56.724,322.922 56.360 C 321.597 55.131,314.345 50.182,312.209 49.048 C 311.976 48.924,311.023 48.381,310.092 47.841 C 306.787 45.925,300.355 42.863,297.096 41.655 C 296.015 41.254,294.876 40.813,294.566 40.674 C 291.115 39.130,280.934 36.552,273.818 35.419 C 268.968 34.647,253.944 33.775,253.493 34.240 M260.235 57.884 C 260.802 58.203,261.581 58.923,261.967 59.486 L 262.668 60.508 262.762 69.480 C 262.847 77.560,262.903 78.466,263.327 78.589 C 263.585 78.663,265.131 78.930,266.761 79.181 C 270.968 79.828,275.359 80.888,277.427 81.756 C 277.937 81.970,278.476 82.145,278.626 82.145 C 281.686 82.145,290.997 89.020,294.700 94.014 C 301.908 103.736,301.575 111.943,293.974 111.922 C 291.127 111.914,289.763 110.642,288.190 106.532 C 284.725 97.477,279.214 92.581,269.627 90.043 C 261.609 87.920,247.678 88.372,240.607 90.983 C 223.524 97.293,220.845 117.839,236.133 125.293 C 237.185 125.806,238.128 126.217,239.997 126.975 C 241.698 127.665,246.400 129.135,249.682 130.003 C 250.459 130.208,251.804 130.576,252.671 130.820 C 253.539 131.064,254.445 131.263,254.685 131.263 C 254.926 131.263,255.740 131.444,256.495 131.666 C 257.850 132.063,259.086 132.366,264.079 133.526 C 265.476 133.850,267.255 134.292,268.031 134.508 C 268.807 134.724,270.268 135.111,271.277 135.368 C 272.287 135.626,273.620 135.995,274.241 136.188 C 274.862 136.381,276.133 136.763,277.064 137.037 C 279.245 137.676,283.223 139.092,284.741 139.769 C 285.392 140.059,285.994 140.296,286.078 140.296 C 286.334 140.296,292.467 143.987,293.115 144.531 C 293.447 144.809,294.504 145.683,295.463 146.471 C 310.244 158.622,307.406 184.461,290.047 195.775 C 286.044 198.384,278.188 201.835,276.250 201.835 C 276.010 201.835,275.269 202.010,274.604 202.224 C 273.228 202.666,268.248 203.423,264.996 203.683 L 262.809 203.859 262.792 211.810 C 262.783 216.182,262.675 220.368,262.553 221.111 C 261.986 224.554,257.923 226.168,255.138 224.056 C 253.094 222.506,252.956 221.753,252.941 212.084 C 252.934 207.228,252.819 203.776,252.662 203.679 C 252.515 203.589,251.023 203.327,249.345 203.098 C 232.450 200.793,222.222 194.675,214.905 182.498 C 214.718 182.188,214.299 181.362,213.973 180.663 C 213.648 179.965,213.197 179.033,212.971 178.594 C 212.746 178.154,212.562 177.665,212.562 177.507 C 212.562 177.349,212.384 176.820,212.167 176.331 C 209.422 170.147,211.401 165.274,216.655 165.281 C 220.000 165.286,221.406 166.602,222.835 171.066 C 224.979 177.760,228.472 182.477,234.013 186.160 C 236.346 187.711,241.268 190.261,241.929 190.261 C 242.110 190.261,242.658 190.439,243.147 190.656 C 244.131 191.093,245.644 191.514,248.412 192.122 C 264.569 195.670,281.765 191.653,289.132 182.610 C 289.714 181.896,290.191 181.235,290.191 181.142 C 290.191 181.050,290.544 180.428,290.976 179.760 C 295.359 172.984,294.062 162.199,288.174 156.452 C 285.860 154.195,279.327 150.176,277.969 150.176 C 277.829 150.176,277.314 149.999,276.825 149.782 C 276.335 149.566,274.982 149.106,273.818 148.762 C 272.653 148.417,271.391 148.014,271.011 147.867 C 270.632 147.719,269.807 147.496,269.177 147.370 C 268.547 147.245,267.015 146.856,265.773 146.506 C 264.531 146.156,263.070 145.773,262.526 145.654 C 261.242 145.373,254.770 143.754,253.493 143.394 C 252.950 143.241,251.997 142.997,251.376 142.852 C 248.983 142.294,247.614 141.927,245.025 141.151 C 243.550 140.709,241.898 140.222,241.355 140.068 C 239.524 139.549,234.824 137.793,233.701 137.207 C 233.088 136.888,232.467 136.627,232.322 136.627 C 231.880 136.627,227.204 133.792,225.510 132.497 C 222.189 129.958,219.142 126.368,217.516 123.077 C 217.095 122.223,216.646 121.324,216.519 121.080 C 215.193 118.521,214.309 111.461,214.815 107.462 C 216.537 93.858,226.585 83.668,241.637 80.260 C 245.023 79.494,249.389 78.776,250.718 78.767 C 253.100 78.751,252.927 79.417,252.941 70.189 C 252.952 63.192,253.025 61.752,253.435 60.559 C 254.419 57.694,257.641 56.426,260.235 57.884 " stroke="none" fill="#9bd3e3" fill-rule="evenodd"></path></g></svg>