<svg id="svg" version="1.1" xmlns="http://www.w3.org/2000/svg" xmlns:xlink="http://www.w3.org/1999/xlink" width="400" height="285.2017937219731" viewBox="0, 0, 400,285.2017937219731"><g id="svgg"><path id="path0" d="M243.049 1.521 C 218.368 4.170,192.077 14.973,171.144 31.065 L 166.056 34.978 119.351 34.978 C 67.740 34.978,69.058 34.828,69.058 40.668 C 69.058 45.794,68.578 45.740,113.831 45.740 L 155.323 45.740 151.142 50.390 C 145.651 56.498,136.454 70.441,132.172 79.148 L 128.755 86.099 81.617 86.099 C 29.780 86.099,30.493 86.025,30.493 91.392 C 30.493 97.010,29.163 96.861,79.315 96.861 C 122.329 96.861,124.821 96.948,124.227 98.430 C 122.274 103.308,119.110 118.287,118.177 127.078 L 117.100 137.220 80.074 137.220 C 39.570 137.220,39.462 137.234,39.462 142.601 C 39.462 147.968,39.570 147.982,80.074 147.982 L 117.100 147.982 118.177 158.124 C 119.110 166.914,122.274 181.894,124.227 186.771 C 124.821 188.254,122.321 188.341,79.159 188.341 C 28.667 188.341,30.493 188.130,30.493 193.966 C 30.493 199.151,30.017 199.103,81.617 199.103 L 128.755 199.103 132.187 206.054 C 136.662 215.115,143.783 226.001,150.126 233.478 L 155.203 239.462 113.615 239.462 C 68.085 239.462,69.058 239.348,69.058 244.689 C 69.058 250.352,67.895 250.224,119.451 250.224 L 166.256 250.224 171.245 254.138 C 242.254 309.848,348.023 285.283,387.024 204.023 C 404.171 168.299,404.897 121.607,388.873 85.198 C 364.120 28.951,304.770 -5.105,243.049 1.521 M286.179 14.218 C 384.090 36.897,422.699 150.790,358.521 227.621 C 320.511 273.124,253.605 286.671,200.397 259.636 C 120.386 218.981,103.428 113.357,166.776 50.218 C 188.255 28.809,212.637 16.729,243.498 12.208 C 250.645 11.161,278.680 12.481,286.179 14.218 M240.807 26.360 C 152.201 41.073,111.524 144.066,166.383 214.798 C 222.708 287.420,338.682 268.997,369.749 182.492 C 399.702 99.091,327.719 11.928,240.807 26.360 M284.371 38.844 C 365.604 59.924,393.274 159.385,334.272 218.211 C 267.404 284.879,152.472 237.079,152.472 142.601 C 152.472 73.824,218.628 21.783,284.371 38.844 M254.740 60.031 C 254.229 60.985,253.812 65.828,253.812 70.793 L 253.812 79.821 250.578 79.821 C 223.916 79.821,206.385 107.373,219.984 127.903 C 225.419 136.109,233.863 140.022,261.435 147.110 C 288.569 154.085,295.340 159.706,293.957 174.104 C 291.526 199.403,238.562 201.965,226.642 177.361 C 225.386 174.768,223.927 171.528,223.401 170.161 C 220.823 163.470,211.659 165.715,211.659 173.038 C 211.659 187.726,233.195 205.270,251.345 205.368 L 253.812 205.381 253.812 214.409 C 253.812 225.076,254.518 226.906,258.637 226.906 C 263.484 226.906,264.468 224.957,264.763 214.766 L 265.022 205.830 270.697 205.204 C 292.584 202.790,306.289 189.209,306.267 169.955 C 306.245 150.071,297.864 142.967,264.073 134.192 C 232.413 125.971,227.803 123.010,227.803 110.894 C 227.803 97.855,238.469 91.015,258.744 91.054 C 275.579 91.086,285.053 96.302,288.778 107.589 C 290.902 114.025,295.938 115.803,300.141 111.600 C 308.415 103.326,290.039 83.822,270.874 80.536 L 264.574 79.456 264.574 70.360 C 264.574 62.687,264.317 61.032,262.934 59.780 C 260.638 57.702,255.909 57.847,254.740 60.031 M1.484 138.860 C -0.476 141.026,-0.402 144.650,1.640 146.498 C 3.831 148.481,27.373 148.701,30.023 146.764 C 32.249 145.136,32.249 140.066,30.023 138.438 C 27.203 136.376,3.414 136.728,1.484 138.860 " stroke="none" fill="#3C6888" fill-rule="evenodd"></path></g></svg>